<svg id="a5e7c9c1-3797-47fa-97da-6ef70f0200f7" data-name="Layer 1" xmlns="http://www.w3.org/2000/svg" viewBox="0 0 395.32 485.67"><title>NINE</title><path d="M255.57,172.86c-1.34,1.39-1.87.28-2.78.35-3.52,1.17-5.94-.11-7.58-3.18a3,3,0,0,1,.86-2Z" transform="translate(-156.94 -71.94)" style="fill:#2a2d7b"/><path d="M251.39,175c.59.93,1.78.81,1.94,2.51-4-1.76-8.09-3.33-11.44-6.46,1.79-2,2.43-.67,3.35-.18C247.21,172.47,250.15,172,251.39,175Z" transform="translate(-156.94 -71.94)" style="fill:#2a2d7b"/><path d="M272.45,182.68c3.77,2.14,8.46,2.26,11.29,6.42C279.77,187.41,275.77,185.8,272.45,182.68Z" transform="translate(-156.94 -71.94)" style="fill:#2a2d7b"/><path d="M237.52,175,237,176.2c-1.4,1.21-1.88,0-2.74-.23-.69-.61-1.09-1.85-2.34-1.23a3.38,3.38,0,0,1-.74.33c-.63-.14-1.15-.43-.86-2l.16-.19.7-.67C234,171.55,235.2,174.56,237.52,175Z" transform="translate(-156.94 -71.94)" style="fill:#2a2d7b"/><path d="M262.89,178.22l8.77,4C267.86,182.88,265.31,180.71,262.89,178.22Z" transform="translate(-156.94 -71.94)" style="fill:#2a2d7b"/><path d="M307.59,203.4l6.63,3.07a1.44,1.44,0,0,1-.41,1.08C311.59,206.47,309,206.23,307.59,203.4Z" transform="translate(-156.94 -71.94)" style="fill:#2a2d7b"/><path d="M233.8,177l.18-.44.2-.43c1.19-.08,2.65-.7,2.48,1.94l-2.38-.64Z" transform="translate(-156.94 -71.94)" style="fill:#2a2d7b"/><path d="M246.75,168.86c-.23-2.22-1.86-2.08-3-2.72l-3.1-2a4,4,0,0,1,.41-1c1.58-.72,2.3.22,3,1.3l3.35,2.08,7.13,4.18L253,172.42Z" transform="translate(-156.94 -71.94)" style="fill:#2a2d7b"/><path d="M234.29,174.77l-2.36-.84C233.45,172.5,234,173.38,234.29,174.77Z" transform="translate(-156.94 -71.94)" style="fill:#2a2d7b"/><path d="M270.61,182.89c.26-.23.36-.16.31.23.52,2.43,2.63,1.32,4,1.86q.4-.24.33.39c2,2.39,5,2.66,7.42,4.2.82.53,1.95.43,2.42,1.69.27-.18.39-.07.37.32,1.91,2.54,5,2.67,7.33,4.25.8.54,2,.37,2.37,1.73l.06,0c0,2.13,2.21-.61,2.41,1.1l.4.37c1,2,3.08,1.69,4.46,2.88.28,1.25,2.1,1.1-.18,4.72l-1-.51c-2.66-2.89-6.77-2.74-9.44-5.64-.25.18-.35.08-.3-.31-2-2.45-5-2.69-7.44-4.25-.83-.53-2-.43-2.43-1.69L280,193.13c-2.43-2.42-5.73-3-8.5-4.63-.84-.51-1.95-.47-2.45-1.7l-.76-.43a17.71,17.71,0,0,1-8.51-4l-7.43-3.86c-.31-1.43-1.7-.79-2.13-2a4,4,0,0,1,1.79-2.72c1-.25,1.37,1,2.53.14,4.46,0,7.43,3.37,11,5.41C266.75,181.53,269.35,180.85,270.61,182.89Z" transform="translate(-156.94 -71.94)" style="fill:#2a2d7b"/><path d="M315.82,212c-1.4.48-2.18-1-4,.79,4.55,2.87,8.45,5.37,11.75,7.52,1.79.59,3.57,1.21,5.32,1.93a2,2,0,0,1,1.31,1.76c2.14.6,4.56,1.32,7.25,2.14a3.45,3.45,0,0,0,.71-1.86C338.49,218,318.38,212.67,315.82,212Z" transform="translate(-156.94 -71.94)" style="fill:#2a2d7b"/><path d="M302.31,206.67c1.2-2.51-.19-2.43,0-3.91,2.38-.78,3.73.77,5.2,2.05l.7.62c.35,1.36,1.54,1,2.24,1.69.26.14.36.51.28,1.12a7.29,7.29,0,0,1-.88,1.87c-.43.47-.79.62-1.06.44-1.83-1.23-4.23-1.23-5.65-3.32Z" transform="translate(-156.94 -71.94)" style="fill:#2a2d7b"/><path d="M323.66,215.57a18.77,18.77,0,0,0-8.24-2.54c-1.13-.38-2.89.38-2.44-2.87a2.94,2.94,0,0,1,.92-1.28c.52.11,1.06.18,1.24,1C317.85,212,321.73,211.79,323.66,215.57Z" transform="translate(-156.94 -71.94)" style="fill:#2a2d7b"/><path d="M295.16,197.56c-3.18-2.12-7.5-1.81-9.7-6C288.93,193.07,292.56,194.24,295.16,197.56Z" transform="translate(-156.94 -71.94)" style="fill:#2a2d7b"/><path d="M285.09,191.26c-3.28-2-7.53-1.88-9.84-5.89C278.61,187.18,282.36,188.14,285.09,191.26Z" transform="translate(-156.94 -71.94)" style="fill:#2a2d7b"/><path d="M281.74,194.27c3.27,2,7.6,1.81,9.87,5.94C288.27,198.34,284.48,197.41,281.74,194.27Z" transform="translate(-156.94 -71.94)" style="fill:#2a2d7b"/><path d="M291.91,200.52c3.2,1.77,7.18,1.88,9.44,5.64C298,204.65,294.47,203.64,291.91,200.52Z" transform="translate(-156.94 -71.94)" style="fill:#2a2d7b"/><path d="M307.49,204.81l-5.2-2.05c-1.18-1.69-3.79-.61-4.26-3.69C301.3,200.74,305,201.58,307.49,204.81Z" transform="translate(-156.94 -71.94)" style="fill:#2a2d7b"/><path d="M313.06,210.38l2.36,2.65c-1.78,1.49-2.29-.42-3.58-.24-.19.15-.29.09-.28-.18a2.7,2.7,0,0,1,.38-2.33C312.52,209.43,313,209.56,313.06,210.38Z" transform="translate(-156.94 -71.94)" style="fill:#2a2d7b"/><path d="M270.61,182.89c-1.75-1-4.26-.54-5.07-3.52C267.36,180.27,269.5,180.53,270.61,182.89Z" transform="translate(-156.94 -71.94)" style="fill:#2a2d7b"/><path d="M315.14,209.85l-1.6-.37c-1.24.07-2.86,1-2.85-1.63a.36.36,0,0,0-.4-.27c-.15-.25-.08-.58.27-1C312.32,207.2,314.07,207.83,315.14,209.85Z" transform="translate(-156.94 -71.94)" style="fill:#2a2d7b"/><path d="M297.63,198.7c-1.11.31-3.82,4.18-2.41-1.1C296.36,197.2,297.51,196.81,297.63,198.7Z" transform="translate(-156.94 -71.94)" style="fill:#2a2d7b"/><path d="M274.92,185c-2,.82-3.74,1.15-4-1.86Z" transform="translate(-156.94 -71.94)" style="fill:#2a2d7b"/><path d="M310.69,207.85l2.85,1.63q-.26.44-.48.9c-.89-.27-1.29.75-1.5,2.23l-1.16-.53c.29-1.44-.51-1.67-.2-3.12l.24-.55Z" transform="translate(-156.94 -71.94)" style="fill:#2a2d7b"/><path d="M310.2,209c.51.54,1.47.61.2,3.12l-1.26-.77c.13-.35.26-.69.41-1Z" transform="translate(-156.94 -71.94)" style="fill:#2a2d7b"/><path d="M310.56,206.59l-.27,1c-.84-.45-2.16,0-2.1-2.15Z" transform="translate(-156.94 -71.94)" style="fill:#2a2d7b"/><path d="M240,127.45l-7,1.59c-2-.37-3.53,1.14-5.36,1.5a5.53,5.53,0,0,1-1.93-.3c-.68-.27-1.63-.32-2-.82-3.71-4.88-6.87-10.22-13.82-11.27-1.11-.17-2.91-4-.17-6.28,4.37-3.64,6.61-8.94,9.87-13.43l4-.75c3.46-1.09,7.3-.1,10.61-2l4.92-1c3.77-.25,7.59.92,11.32-.39a.5.5,0,0,1,.67.36c3.45.32,3.08,3.24,3.64,5.53,1.55,1.49.55,3.19.42,4.83.82,1.28,0,2.24-.6,3.24-3.09.56-3.09.56-4.61-2.1-2.62-4.58-5.15-4.6-8.37-.63-3.06,3.78-3.55,8.5-5.15,12.8-.6,1.63-.37,3.53,2.13,3.66.64-.14,1.28-.25,1.91-.4,2.58-.54,4.85-.37,5.83,2.7C245,127,241.79,125.86,240,127.45Z" transform="translate(-156.94 -71.94)" style="fill:#2b3491"/><path d="M231.91,88.92a77.81,77.81,0,0,0-31.78,14.65c-3,2.33-3.51,3.84.22,5.58a2.46,2.46,0,0,1-.78,1.75c-2,6.68-3.69,13.34,1.9,19.29-.16,2.07-2.07,2.53-3.2,3.72-1.54,1.63-5.31,3.09-.81,5.78a1.85,1.85,0,0,1,.52,2.64c-2.92,3.95-2.1,8.35-1.78,12.8.17,2.51-.39,5.13-3.93,4.83-6-3.9-2.15-9.24-2.38-13-1.08,3.45-4.8,7.29-2.63,12.9.84,2.17-1.16,4-3.86,3.9-5.59-5.87-5.85-8.93-1.24-17.82-5.56-1.21-7.76-3.58-2.08-7.77-3.33-5.4.6-7.4,3.93-10.53,3-2.81-.88-9,4.8-11.82-2.56.45-3.07,4-5.77,2.11q16.74-26.82,47.56-31.73C232.52,86.38,233.45,87,231.91,88.92Z" transform="translate(-156.94 -71.94)" style="fill:#2e3d97"/><path d="M216.54,185.57c1.4,1.66,2.87,3.26,4.18,5,1.18,1.55,1.32,3.35-.26,4.62-7.86,6.29-12.36,15.8-20.33,22a2.19,2.19,0,0,1-2.41-1.59c.27-3.2,5.51-4.59,3.8-7.84-2.55-4.85-6.08-.14-9.15.19-7.18.76-10.88-1.89-13-9.9a4.49,4.49,0,0,1,2-.33,7.91,7.91,0,0,0,2.06.13,8.54,8.54,0,0,0-3.38-.1,1.44,1.44,0,0,1-1.15-.38c-.3-.29-.43-.47-.38-.54.08-3.25-3-3.83-4.61-5.66l-1.2-3.15c1.62-2.86,3.82-2.52,6.22-1.17,3.84,3.48,10.6,1,13.58,6.91.24.47,5.85.76,8.28-2.26s5.39-2.65,8.23-.51c-1.84-4.2-3.17-8.78-8.37-10.65-1.42-.51-1.06-3.05.2-4.55,1.33-1.19,3-1.4,4.65-1.81a8.79,8.79,0,0,1,3.94-.45c2.23,1.44,2.7,3.78,2.76,6.16C212.29,182.77,214.44,184.11,216.54,185.57Z" transform="translate(-156.94 -71.94)" style="fill:#37469d"/><path d="M183,118a7.47,7.47,0,0,0,2-.8c2.13-1.67,4-6.76,6.32-4.35,3.28,3.45-2.18,3.68-3.83,5.44-.81.86-.68,2.71-.84,4.13-.41,3.7,1,7.44-5,9.12-3.54,1-1.42,5.69,2.63,7.85-2.43.56-3.91.66-5.13,1.28a2.77,2.77,0,0,0-1.11,2.36,1.52,1.52,0,0,0,2.35.83c1.41-.81,2.69-2.48,3.94.09a3.82,3.82,0,0,1-.82,4.75c-5.9,5-2.48,9.78.17,14.63,2.64,2.79,1.3,4.87-1.45,6-3.06,1.24-5.88,3.37-9.41,3.24a4.79,4.79,0,0,1-3.07-3.21l0-2c1.31-1.55,1.5-4.16,4.51-4.32-1.71-.71-3.22-.08-4.47-.91a28.14,28.14,0,0,1,1.44-11.84c3.6-1.61,2.38-4.19,1.25-6.74-.69-3.6,1.54-6.39,2.44-9.56,3.15-2.28,3.25-6.11,4.54-9.35C179,121.46,181.55,120,183,118Z" transform="translate(-156.94 -71.94)" style="fill:#33439b"/><path d="M192.48,159c4.44-1.35,1.79-4.63,1.66-7.05-.22-4-1.31-8.16,4.44-11.1-8.86-1.4-6.88-3.56-2.61-7.17,1.65-1.39,4-1.43,5.11-3.39a4,4,0,0,1,2.85.35,16,16,0,0,0,6.37,2,5.56,5.56,0,0,1,3.15,2.51,4.39,4.39,0,0,1,.3,2.06c-.7,3.14-2.18,5.1-5.74,5.37a12,12,0,0,0-7.51,3.4c4.37-4.23,11.13-2.45,15.66-6.22,2.1,3.95-2.53,6.29-2.22,9.82l-.6,3.28a2.72,2.72,0,0,1-2.55-.84c-.5-.51-.88-1.5-1.42-1.51-1,0-.46,1-.62,1.65a4.73,4.73,0,0,1-.5,1.79c-1.83,2.4-2.05,5.54-3.43,8-1.57,2.86-3.84,4.46-4.78-.61a.65.65,0,0,1,.37-1c-1.07.19,0,1-.42,1.48-3.5,5.44-5.22,5.5-11.1.41C188.22,159.06,190.25,158.9,192.48,159Z" transform="translate(-156.94 -71.94)" style="fill:#2c3693"/><path d="M252.15,160.92c9.21-8.09,9.21-8.09,13,4.05a7,7,0,0,1-2.31,5c-4.12,3.77-10.1,3.1-14.61,6.73-3,2.4-11-3.27-12.75-8.45a15.55,15.55,0,0,1,2.39-14.64c3-4.07,4.61-2.06,5.22,1.89l.25,4.17C246,162.61,248.3,167.74,252.15,160.92Z" transform="translate(-156.94 -71.94)" style="fill:#36449a"/><path d="M188,103.15c-10.29,11.23-16.91,24.56-21.42,39.1a15.46,15.46,0,0,0-1.8,9.89v0c-1.19,1.39-1.28,4-3.95,3.8a4.9,4.9,0,0,1-3.37-3.77c.88-6.26,1.7-12.55,3.95-18.48,1.7-4.46,3-9.34,8.77-10.29,2-.33,1.94-2.49,2.83-3.83,4.94-7.45,9.35-15.38,16.71-20.8C190.15,100.62,188,101.45,188,103.15Z" transform="translate(-156.94 -71.94)" style="fill:#404a9f"/><path d="M219.5,98.44c-.47,6.47-4.13,11.15-8.89,14.71-2,1.52-.11,1.77-.05,2.57.15,1.83.54,3,3,2.89,4.58-.19,9.89-1.06,8.07,7.14-.72,3.28,5.18.72,5.38,4.36-2.52,4.71-7.25,2.72-11,3.73-1.46-.14-3.36-.28-3.83-1.64-1.33-3.89-.74-9-7.4-8.39-1.31.13-1-2.85-.95-4.58.36-6.7,2.63-12.39,7.93-16.59,1.86-1,3.49-2.4,5.29-3.51C217.71,98.31,218.33,97.4,219.5,98.44Z" transform="translate(-156.94 -71.94)" style="fill:#2b2f81"/><path d="M180,197.73c5.86,10.44,6.9,10.71,16.84,5.13,3.41-1.92,4.68,4.37,8.23,2.59.83,2.26-.69,3.68-1.76,5.28a12.05,12.05,0,0,1-5.39,4.73,2.59,2.59,0,0,1-2.86.39c-2.23-1-2.93-4-5.94-4.63,2.91,1.42,4.09,4.31,6.62,5.63-1.38,6.25-2.25,6.49-7.7,2-2.8-2.43-4.58-5.6-6.26-8.84-.13-3.66-2.91-5.88-4.55-8.71-.2-.64-.4-1.27-.59-1.9a2.67,2.67,0,0,1,2.2-2.61l1.16.9Z" transform="translate(-156.94 -71.94)" style="fill:#4150a2"/><path d="M164.14,162.84c.56,10.88,1.57,21.7,5,32.14-.58,1.26-1.25,1.69-2.14.24-4.33,2.35-6.29,1.14-7-4-.78-5.94-2.86-11.7-2.47-17.82,1.9-3.65.77-8.09,2.84-11.71a2.41,2.41,0,0,1,1.69-1A2.91,2.91,0,0,1,164.14,162.84Z" transform="translate(-156.94 -71.94)" style="fill:#3c499e"/><path d="M243.14,155.52c-1.16-.47-1-4.24-3.19-1.75-3.49,4.06-5.08,9.39-2.83,14.19,1.87,4,8,9.41,10.14,7.19,4.38-4.64,9.79-2.92,14.13-5.36a3.85,3.85,0,0,1-.2,2.44,10,10,0,0,1-5.26,5l-.28.41-.39.3c-1.87.42-3.83.5-5.54,1.52-1.9.35-3.86.35-5.66,1.16-7.41,2.85-9.81-1.3-10.5-7.85-.38-4.65-1-9.29-.29-14a1.11,1.11,0,0,1,.36-.88A13.35,13.35,0,0,1,240,149l-.23,0c2.36-.36,3.92.37,4.09,3.06C244.66,153.46,243.55,154.42,243.14,155.52Z" transform="translate(-156.94 -71.94)" style="fill:#2d3790"/><path d="M212.08,103.43c-2,4.4-4.81,8-6.13,13.22-2.7,10.75,2.15,6.51,6.14,4.57,4.53,3-4.25,9.79,3.86,11.17a2.7,2.7,0,0,1-.08,3.44,2.24,2.24,0,0,1-2.57.09l-3.59-2.44c-1.34-.35-2-1.52-2.8-2.49-6.76-4-7.57-10.68-7.9-17.61a4,4,0,0,1,.7-2.94,4.1,4.1,0,0,0,.64-1.29c5.4.92,6-6.34,10.67-6.56q.82-.33,1,.15C212.17,103.06,212.18,103.29,212.08,103.43Z" transform="translate(-156.94 -71.94)" style="fill:#211d5b"/><path d="M239.56,123c-1.21,1.14-2.7,3-4.09,1s-2.32-4.44-1.27-7c2.18-5.3,4.55-10.51,6.6-15.86.65-1.7,2.12-1.92,2.55-1,1.75,3.62,7.32-3.07,7.86,3.29.18,2-1.13,5.57,3.27,4.81.61.8,1.87,1.34,1.21,2.7a1.44,1.44,0,0,1-2.15.64c-.91.29-1.81.88-2.75.72-8.07-1.39-8.79-.87-10.56,7.91A22.82,22.82,0,0,1,239.56,123Z" transform="translate(-156.94 -71.94)" style="fill:#303d98"/><path d="M239.56,123c-4-8.56,4.46-11.87,7.23-18.21-.16,5.29,2.89,6.5,6.75,6.75L252,114c-.73,1.63,0,3.46-.63,5.09-1.18,3.3-1.2,9.16-6.71,3.24-2-2.15-3.43.13-5.08.7Z" transform="translate(-156.94 -71.94)" style="fill:#37439a"/><path d="M211.15,151.17l2.19,1.7c-2.22,11.22-1.93,22.19,3.2,32.7-4.11-.13-6.64-1.76-6-6.48.29-2-.78-3.65-1.63-5.33-2.85-2.14-1.87-5.51-2.61-8.33-.35-4.43,1.06-8.57,1.9-12.81h0C208.58,150.84,209.78,150.83,211.15,151.17Z" transform="translate(-156.94 -71.94)" style="fill:#2e358f"/><path d="M178.36,214.74c2.84,3.33,5.69,6.64,8.52,10,1.06,1.25,2.93,2.49,1.29,4.29a9.51,9.51,0,0,1-4.25,2.55c-2.45.73-2.66-1.76-3.07-3.16-1.21-4.16-2.07-8.43-3.07-12.65C177.56,215.16,177.78,214.84,178.36,214.74Z" transform="translate(-156.94 -71.94)" style="fill:#4e58a6"/><path d="M169.8,169.32l3.68,2.78c7.53,2.58,7.93,4.78,2,10.81a5.23,5.23,0,0,1-3.65,1.21C170,179.34,170,174.32,169.8,169.32Z" transform="translate(-156.94 -71.94)" style="fill:#2f3c97"/><path d="M231.91,88.92c.25-1.24-.47-2-1.31-2.67,7.89-2.32,15.82-3,23.82-.42a1.29,1.29,0,0,1-1,1.68C246.13,86.59,239,87.66,231.91,88.92Z" transform="translate(-156.94 -71.94)" style="fill:#555daa"/><path d="M245.62,75.56l3.57,2.14c-6.54.63-12.78,3.81-19.54,2l0,.13c1.23-2.41,3.87-2.06,5.81-3.07,1.85-.34,3.28-1.74,5.13-2a7.8,7.8,0,0,1,1.8-.61C243.7,74.11,245,74,245.62,75.56Z" transform="translate(-156.94 -71.94)" style="fill:#555eaa"/><path d="M239.56,123c3.31-5.33,6,.12,8.79.9,2.19-3.22.54-7.46,3.63-9.93,2.83,4-1.14,8.23.49,12.65.65,1.76-3,.35-4.73.26-.74-.7-1.61-1.32-1.74-2.48C244.23,122.11,241.85,122.74,239.56,123Z" transform="translate(-156.94 -71.94)" style="fill:#303d98"/><path d="M161.61,161c-1.87,4,.79,9.49-4,12.44-1.09-4.61-.44-9.27-.45-13.91.47-1.89,1.86-2,3.27-1.51S161.88,159.7,161.61,161Z" transform="translate(-156.94 -71.94)" style="fill:#374099"/><path d="M215.46,135.61c.16-1.07.33-2.14.49-3.21L227,130.11h0c1.37.46,1.59,1.14.42,2.1-1.38,1.52-2.47,3.39-4.71,3.79-2.34-.76-3.39,2.61-5.74,1.85A2.24,2.24,0,0,1,215.46,135.61Z" transform="translate(-156.94 -71.94)" style="fill:#1f1b58"/><path d="M195.92,215.74l2-.28,2.18,1.7c-.72,2-3,2.47-4,3.91-4.73,6.62-6.31,2.11-8.06-2.19,2.23-1,6.72,6.17,7-2A.91.91,0,0,1,195.92,215.74Z" transform="translate(-156.94 -71.94)" style="fill:#3a449b"/><path d="M233.27,158.76c.92,4.64,2.4,9.27.29,14C230.29,168.12,230.28,163.46,233.27,158.76Z" transform="translate(-156.94 -71.94)" style="fill:#1c1950"/><path d="M178.87,196.82l-2.2,2.61c-2.13-2.35-2.54-5.28-2.75-8.29C176.3,192.38,182.16,190.45,178.87,196.82Z" transform="translate(-156.94 -71.94)" style="fill:#4b56a6"/><path d="M235.16,143.84l-7.82,10.48c-.36,1.64-1,1.32-1.84.31,2.38-4.31,2.92-9.94,8.29-12.1A1.36,1.36,0,0,1,235.16,143.84Z" transform="translate(-156.94 -71.94)" style="fill:#4150a2"/><path d="M215.46,135.61l2.22,2a1.74,1.74,0,0,1,2.07,1.86c-2.33,3.15-2.82,7.4-5.81,10.15-2.46-3.88,2.91-6.08,1.93-9.65a4.83,4.83,0,0,1-2.6-3.76l0-.26Z" transform="translate(-156.94 -71.94)" style="fill:#2e358f"/><path d="M169.81,162.1A32.59,32.59,0,0,1,174,161c1.06-.16,2.68-1,3.11.65s-.22,3.14-2.26,2.58c-2.91-.8-2.4,3.71-5,3.13C169.78,165.59,169.8,163.84,169.81,162.1Z" transform="translate(-156.94 -71.94)" style="fill:#323d96"/><path d="M234.11,95.67c-2.77,4.78-6.73,3.19-10.61,2C226.57,94.57,230.2,94.39,234.11,95.67Z" transform="translate(-156.94 -71.94)" style="fill:#312e6f"/><path d="M172.5,143.52c1.8,1.5,4.89,2.43,4.17,5.39s-3.54,1-5.42,1.35A11.72,11.72,0,0,1,172.5,143.52Z" transform="translate(-156.94 -71.94)" style="fill:#3e4b9f"/><path d="M199.69,91.87c1.49-4.46,5.4-5,9.13-5.79.38-.2.64-.18.78,0s.19.4.12.5c-3.19,2.08-5.87,5.21-10.13,5.05Z" transform="translate(-156.94 -71.94)" style="fill:#4753a4"/><path d="M250.35,94.24c-3.61,4.35-7.5,1.52-11.32.39C242.71,92.06,246.54,93.33,250.35,94.24Z" transform="translate(-156.94 -71.94)" style="fill:#2e2b70"/><path d="M171.79,184.12l1.91-2.44c2.92.7,6.58.74,4.93,5.62a9.54,9.54,0,0,0-5.91.69A4,4,0,0,1,171.79,184.12Z" transform="translate(-156.94 -71.94)" style="fill:#4954a5"/><path d="M161.61,161c-.93-2.32-2.42-2.84-4.49-1.47.1-2.47.21-4.93.31-7.39l4.51,3.52c1.57,1.88,2.95,3.75-.29,5.33Z" transform="translate(-156.94 -71.94)" style="fill:#3c499e"/><path d="M255.93,177.18l4.59-6.09c2,.13,2.22-4,4.94-2.16C262.6,172.06,261.94,177.83,255.93,177.18Z" transform="translate(-156.94 -71.94)" style="fill:#1f1b57"/><path d="M221.55,148.93c-.29-4.84,2.13-6.81,4.59-9.49C227.21,144.08,224.08,145.65,221.55,148.93Z" transform="translate(-156.94 -71.94)" style="fill:#6c76b8"/><path d="M254.32,100.91,251,94.6c2.1-.94,4.31-1,5.82.83s-1.17,2.7-1.49,4.2C255.52,100.49,255.15,100.89,254.32,100.91Z" transform="translate(-156.94 -71.94)" style="fill:#2f317e"/><path d="M178.36,214.74a7.1,7.1,0,0,1-.59,1c-3.06-1.58-4.07-4.72-5.52-7.54.73-1.2,1.49-1.62,2.31-.06A9.94,9.94,0,0,1,178.36,214.74Z" transform="translate(-156.94 -71.94)" style="fill:#5b60ab"/><path d="M235.16,143.84l-1.37-1.31c2.9-1.31,5.35-5,9.11-1.7l0-.17A15.31,15.31,0,0,1,235.16,143.84Z" transform="translate(-156.94 -71.94)" style="fill:#6269b0"/><path d="M240,149l-6.34,8.88C233.41,153.18,233.84,149,240,149Z" transform="translate(-156.94 -71.94)" style="fill:#211c53"/><path d="M199.69,91.87l-.1-.19c-1.57,3.67-4.87,5.36-8,7.32-.57-.72-.12-1.44,0-2.16C194.32,95.18,195.69,91.32,199.69,91.87Z" transform="translate(-156.94 -71.94)" style="fill:#3e4da1"/><path d="M161.65,161c1.52-1.69.1-3.56.29-5.33a3.85,3.85,0,0,1,2.81-3.55q-.3,5.37-.61,10.75Z" transform="translate(-156.94 -71.94)" style="fill:#4752a3"/><path d="M229.65,79.74c-2.69,3-6.46,2.77-9.92,3.46a2.15,2.15,0,0,1-.2-1.85c3.27-1.27,6.45-3.18,10.15-1.48Z" transform="translate(-156.94 -71.94)" style="fill:#7277b8"/><path d="M174.56,208.14l-2.31.06c-1.37-2.52-3.4-4.74-3.44-7.86a1.58,1.58,0,0,1,1.58-1.69Z" transform="translate(-156.94 -71.94)" style="fill:#6166ae"/><path d="M242.59,75l-1.39.89c-1.63-.1-3.26.24-4.89-.14-1.05-.46-2.85-.73-3-1.4-.44-1.87,1.28-1.44,2.36-1.48,1.42,0,2.84,0,4.26,0A2.48,2.48,0,0,1,242.59,75Z" transform="translate(-156.94 -71.94)" style="fill:#b0b7dd"/><path d="M252.15,160.92c0,2.24-1.19,4.54-3.17,3.94-2.28-.69-6.35-.59-5.59-5.17C246.18,161.11,248.56,165.67,252.15,160.92Z" transform="translate(-156.94 -71.94)" style="fill:#2c3188"/><path d="M177.26,201.33c2.37,2.44,7.21,3.55,4.54,8.71C179.87,207.36,178.05,204.62,177.26,201.33Z" transform="translate(-156.94 -71.94)" style="fill:#37469d"/><path d="M249.07,178.8c1.81-2,3.73-3.3,6.19-.91-1.12,2.62-3.53,2.87-5.85,3.29C248,180.58,248.07,179.75,249.07,178.8Z" transform="translate(-156.94 -71.94)" style="fill:#161449"/><path d="M164.75,152.14c-1.49-3.7-2.56-7.32,1.8-9.89Z" transform="translate(-156.94 -71.94)" style="fill:#4752a3"/><path d="M216.74,163.2a19,19,0,0,1,1.25-8.64,3.16,3.16,0,0,1,1.91-.33l-1.2,8.52A2.38,2.38,0,0,1,216.74,163.2Z" transform="translate(-156.94 -71.94)" style="fill:#6b6fb4"/><path d="M253.38,87.51l1-1.68c2.28-.64,4.54-1.23,6.08,2C258,89.26,255.68,88.65,253.38,87.51Z" transform="translate(-156.94 -71.94)" style="fill:#5761ac"/><path d="M249.07,178.8c.11.79.23,1.59.34,2.38-1.89.78-3.75,1.36-5.35-.61C244.71,177,246.76,177.53,249.07,178.8Z" transform="translate(-156.94 -71.94)" style="fill:#2c2b6b"/><path d="M242.59,75l-2.67-2.15c6.46-1.57,6.68-1.47,5.7,2.68Z" transform="translate(-156.94 -71.94)" style="fill:#8f96ca"/><path d="M226.23,190.87c-3-2.68-4.33-4.63-4.57-9.45C224.05,185,226.31,186.36,226.23,190.87Z" transform="translate(-156.94 -71.94)" style="fill:#5d63ad"/><path d="M179.48,124.61c-.31,3.73-.24,7.66-4.54,9.35C176.06,130.65,177,127.26,179.48,124.61Z" transform="translate(-156.94 -71.94)" style="fill:#2e3994"/><path d="M224.73,170.7c-1.55-2.19-.91-4.38-.51-8.13,2.21,3.5,2.16,5.71,1.37,8C225.38,171.25,225.09,171.26,224.73,170.7Z" transform="translate(-156.94 -71.94)" style="fill:#7c82bf"/><path d="M265.46,168.93l-4.94,2.16.87-1.3L265.2,165C266.21,166.23,267,167.51,265.46,168.93Z" transform="translate(-156.94 -71.94)" style="fill:#31398a"/><path d="M240.85,133.86c2.24-2.75,4.5-3.51,7.16-.45Z" transform="translate(-156.94 -71.94)" style="fill:#6266ae"/><path d="M246,124.4l1.74,2.48-7.78.57C241.26,125,244,125.37,246,124.4Z" transform="translate(-156.94 -71.94)" style="fill:#2b2c77"/><path d="M239.54,133.49c-1.3,2.52-3.46,2.29-5.21,2.82-.87-1.11-.52-1.89.42-2.42A5,5,0,0,1,239.54,133.49Z" transform="translate(-156.94 -71.94)" style="fill:#6d72b6"/><path d="M209.72,86.63a2.79,2.79,0,0,1-.9-.56c1.23-2.56,3.72-2.49,6-2.93.5-.08.82,0,1,.35s.16.51.08.62C214,85.57,212.24,87,209.72,86.63Z" transform="translate(-156.94 -71.94)" style="fill:#5360ab"/><path d="M243.83,152.09a7.5,7.5,0,0,0-4.09-3.06c1.17-1,2.27-3,3.95-1.88S244.78,150.4,243.83,152.09Z" transform="translate(-156.94 -71.94)" style="fill:#383470"/><path d="M224.73,170.7a1,1,0,0,0,.86-.11c1.38,1.79,2,3.74,1.13,6.85C224.83,175.08,224.19,173.1,224.73,170.7Z" transform="translate(-156.94 -71.94)" style="fill:#8d90c7"/><path d="M219.75,139.44l-2.07-1.86c1.41-1.34,2.18-4.76,5-1.59Z" transform="translate(-156.94 -71.94)" style="fill:#0e1030"/><path d="M227.39,132.2l-.42-2.1c1.87-1,3.63-2.64,5.95-1.07A10.75,10.75,0,0,1,227.39,132.2Z" transform="translate(-156.94 -71.94)" style="fill:#2b2f81"/><path d="M225.5,154.63l1.84-.31c.5,2.34-.8,4-1.74,6.22C223.72,158,224.69,156.32,225.5,154.63Z" transform="translate(-156.94 -71.94)" style="fill:#7b7fbd"/><path d="M256.81,74.19c2.09-1.15,3.61-.68,5.36.77C260,76,258.43,75.71,256.81,74.19Z" transform="translate(-156.94 -71.94)" style="fill:#dedff0"/><path d="M191.64,96.84V99L188,103.15c-.39-1.87,1-3,1.72-4.43Z" transform="translate(-156.94 -71.94)" style="fill:#38449b"/><path d="M242.9,140.83a3.38,3.38,0,0,1,3.84-2.22c.28,0,.74,1.38.54,1.64-1.26,1.61-2.94,0-4.41.41Z" transform="translate(-156.94 -71.94)" style="fill:#565eaa"/><path d="M216.74,163.2l2-.45c-.18,1.56.94,4.31-.8,4.4C215.47,167.27,216.86,164.67,216.74,163.2Z" transform="translate(-156.94 -71.94)" style="fill:#5963ad"/><path d="M219.9,154.23l-1.91.33c.63-1.68,1.25-3.37,1.94-5.2C222.07,151.32,220.4,152.73,219.9,154.23Z" transform="translate(-156.94 -71.94)" style="fill:#4a55a5"/><path d="M254.32,100.91l1-1.28c2.61,1.93,2.57,3.71-.27,5.33C254.83,103.61,254.57,102.26,254.32,100.91Z" transform="translate(-156.94 -71.94)" style="fill:#35356e"/><path d="M258.81,80.32c-1.68-.17-3.71.81-4.71-1.48-.14-.33.17-.86.28-1.3l3,1.45C258.32,78.89,258.8,79.34,258.81,80.32Z" transform="translate(-156.94 -71.94)" style="fill:#7278b9"/><path d="M212.08,103.43c-.35-.29-.7-.57-1.06-.84,1.22-2.59,3.53-3.19,6-3.46A10.73,10.73,0,0,1,212.08,103.43Z" transform="translate(-156.94 -71.94)" style="fill:#1e1b55"/><path d="M170.39,198.65l-1.58,1.69q-.92-2.55-1.81-5.12l2.14-.24C169.55,196.2,170,197.43,170.39,198.65Z" transform="translate(-156.94 -71.94)" style="fill:#656db2"/><path d="M258.81,80.32,257.36,79a3.75,3.75,0,0,1,4.69.33c.19.16.09,1-.15,1.3C260.78,82,259.8,80.92,258.81,80.32Z" transform="translate(-156.94 -71.94)" style="fill:#6168b0"/><path d="M215.83,84.11a6.83,6.83,0,0,0-1-1l4.74-1.79c.07.62.13,1.23.2,1.85Z" transform="translate(-156.94 -71.94)" style="fill:#4d5ca9"/><path d="M236.31,75.78a3.69,3.69,0,0,1,4.89.14c-1.71,1.5-3.72,1.14-5.71.88A6.78,6.78,0,0,1,236.31,75.78Z" transform="translate(-156.94 -71.94)" style="fill:#d7d2e7"/><path d="M178.63,187.3c-.15-3.23-3.14-3.88-4.93-5.62,7-3.32,4.49-6.47-.22-9.58A13.78,13.78,0,0,1,181,168c3.07-.62,3.3-2.21,2.73-4.67,1.7-.74,3.27-2.29,2.39-3.89-4.89-8.9,3.66-11.71,6.6-17.09-2.86,5.56-2.13,11.07-.23,16.64-1.18.94-3.61.9-2.64,3.53,1.6,4.41,4.27,7.19,9.3,6.41a5,5,0,0,1,3.26,3.76,4.08,4.08,0,0,1-.42,3c-.63,1.44-2.39,3.53.32,4.07,8.57,1.71,7.33,9.53,9.6,15.16,0,.09-.28.33-.59.68-3.25-1.54-6.24-10.83-10.3-.56-1.38,3.5-4.74-1.51-7.54.81-2.41,2-5.27,2.25-4.25-3.35.46-2.5-3.93-1.26-6.11-1.82C181.38,190.25,176.59,193.15,178.63,187.3Z" transform="translate(-156.94 -71.94)" style="fill:#31419a"/><path d="M199.71,110.44c.07.64.13,1.27.19,1.91.63,5.19-1.14,10.9,3.28,15.27.71,1.45,2.26,2.86.25,4.45l-2.35-1.81c-3.52-2.53-9-4-4.36-10.41.9-1.26-.34-4.25-.81-6.4C195.07,109.57,196.53,108.93,199.71,110.44Z" transform="translate(-156.94 -71.94)" style="fill:#2e358f"/><path d="M201.7,173.63l-2.59-3.89c2.36-2.6,3.34-8.08,8.75-4.35q.54,4.19,1.09,8.37a2.91,2.91,0,0,1-2.89,1.41A6.91,6.91,0,0,1,201.7,173.63Z" transform="translate(-156.94 -71.94)" style="fill:#36459c"/><path d="M180,197.72c.8-.47,1.71-1.47,2.36-1.32,1.46.36,2.29-2.38,3.63-.69a3.05,3.05,0,0,1,.16,2.69c-.79,1.53-2.33,1.51-3.74.91a16.11,16.11,0,0,1-2.41-1.58Z" transform="translate(-156.94 -71.94)" style="fill:#31419a"/><path d="M201.7,173.63c1.87-.74,3.05.59,4.36,1.54a4.89,4.89,0,0,1-4.08.54C201.89,175,201.8,174.32,201.7,173.63Z" transform="translate(-156.94 -71.94)" style="fill:#2f3e98"/><path d="M207.86,165.39c-4.33-1.48-5.1,4.43-8.75,4.35-7.14,1.44-8.73.2-9.27-7.24,3.65,1.43,7.47,4.12,10.19-1.36h0c1.37,2.25,2.74,4.56,3.64-.23.62-3.29.81-6.82,4.57-8.29C210.92,157,206.71,161.09,207.86,165.39Z" transform="translate(-156.94 -71.94)" style="fill:#2f3e98"/><path d="M213.27,136.18c1.34.92,2.8,1.74,2.6,3.76-1.69,2.44-3.37,4.69-6.93,4.18-5.3-.75-7.28,5.43-12.53,6.8,1.13-6.07,5.22-8.73,9.47-9.3C209.86,141.09,211.65,139.17,213.27,136.18Z" transform="translate(-156.94 -71.94)" style="fill:#2f3e98"/><path d="M203.43,132.07l-.66-4.15c2.22,0,3.5,2.22,5.62,2.42l1.32,3.14C207.26,134.7,205.27,133.74,203.43,132.07Z" transform="translate(-156.94 -71.94)" style="fill:#2c3084"/><path d="M211.15,151.17l-2.91,1.45c-2.19-1.75-1.16-3.82-.78-6.31C209.76,147.47,211,148.84,211.15,151.17Z" transform="translate(-156.94 -71.94)" style="fill:#2f3e98"/><path d="M200,161.14c-.85-1.86-1.31-3.66.73-5.21,2.66,2.21,0,3.57-.73,5.21Z" transform="translate(-156.94 -71.94)" style="fill:#2f3e98"/><path d="M195.92,215.74q-.43.58-.84,1.17c-4.33-.85-6.72-4.62-9.93-7.29C190.4,208.43,193.59,211.24,195.92,215.74Z" transform="translate(-156.94 -71.94)" style="fill:#4756a5"/><path d="M208.39,130.34c-2.53.82-3.83-1.41-5.62-2.42-6.2-4.21-3.44-10.09-2.87-15.57,2.14,2,1,4.68,1.25,7C201.59,124.48,204.6,127.63,208.39,130.34Z" transform="translate(-156.94 -71.94)" style="fill:#2b2f81"/><path d="M184.73,181.2c2-4.79,3.43-10.24,10.66-7.62,1.25.45,2.74-.32,2.84,1.79.13,2.69-1.45,1.54-2.8,1.37C191.13,176.2,187.8,178.1,184.73,181.2Z" transform="translate(-156.94 -71.94)" style="fill:#37469d"/><path d="M252.91,464.44c-3.79-3-1.29-6.28-1.14-9,1-17.53.16-35.18-.05-52.79a2.91,2.91,0,0,1,3.33.68c-.27,4.31.13,8.69-.73,12.93.33,2-.51,3.91.77,5.89l.31,14a5.65,5.65,0,0,0,.17,5.32c0,.37,0,.74,0,1.12-1.46,3.88.66,8.16-.81,12,.2,6,1.11,12,.14,17.85a1.68,1.68,0,0,1-2.15-.68C252.63,469.36,252.15,466.84,252.91,464.44Z" transform="translate(-156.94 -71.94)" style="fill:#364a9f"/><path d="M255.55,402.64l-.9-26q.4-.57,1.38-.15C256.35,385.23,257.35,394,255.55,402.64Z" transform="translate(-156.94 -71.94)" style="fill:#292663"/><path d="M251.81,382.28l.11,12.79c-.26.31-.68.37-1.26.13-.32-6.77-1.41-13.59.42-20.2C253,377.49,252.24,379.88,251.81,382.28Z" transform="translate(-156.94 -71.94)" style="fill:#303478"/><path d="M251.22,372.2l1.4-.19c-.19,3.43,1.76,7.05-.81,10.27-.24-2.42-.49-4.85-.73-7.27C251.13,374.07,251.18,373.13,251.22,372.2Z" transform="translate(-156.94 -71.94)" style="fill:#1b1a3a"/><path d="M250.66,395.2l1.26-.13c-.34,2.59,1.57,5.42-1.14,7.75Z" transform="translate(-156.94 -71.94)" style="fill:#19164a"/><path d="M256,376.47l-1.38.15c.12-2-1.24-4.21.76-6,2.24,1,1.17,2.07.71,3.1Z" transform="translate(-156.94 -71.94)" style="fill:#1b1a3a"/><path d="M253.45,434.39c.46,0,.93.07,1.39.09,0,1.42.07,2.83.1,4.25C252.61,437.34,253.8,435.84,253.45,434.39Z" transform="translate(-156.94 -71.94)" style="fill:#2a3c95"/><path d="M255.7,427.6c-2-1.9-2.14-3.68-.17-5.31C255.58,424.06,255.64,425.83,255.7,427.6Z" transform="translate(-156.94 -71.94)" style="fill:#40509f"/><path d="M199.74,297.09l1.09-1.37c1.4.13,2.9.18,3.82-.87,3.29-3.77,7.3-3.35,11.61-1.54,1,3.57,4.42,2.39,6.81,3.25,2.8,1.14,5.82,2.19,3.3,5.81-1.32,1.42-2.69,2.8-4.79,3.24-3.61.21-6.83-1.5-10.49-2.18,2.9,1.64,7.61.62,7.76,5.37a2.42,2.42,0,0,1-1.12,1c-1.8-.07-4.1-.84-3.6,2.22a3,3,0,0,1-.51,1.36c-3,1.8-3,6.26-7.08,7.1-2.68,1.16-.59,5.41-3.91,5.8-2.73.33-4.19-2.71-6.67-3.38s-4.87-1.59-7.28-2.42c-3.41-1.18-5-3.21-2.18-6.24,2.4-.3,4.29-2.38,7.2-1.12,2.43,1,1.39-1.27,1.68-2.09.47-1.38.38-3.3,2.28-3.46,2.4-.2,2.76,1.7,2.94,3.33,4.33-1.9,4.27-4.5,1.65-8.2C201.14,301.16,198.12,299.78,199.74,297.09Z" transform="translate(-156.94 -71.94)" style="fill:#2c3188"/><path d="M298.1,323l-1.78.51-.87,0a2.22,2.22,0,0,1-.58-1.45c.06-1.35,1.77-2.42,1.51-3.43-1.13-4.43.59-5.78,5.17-5,1.2.21,2.64-.4,2.17-1.83s-.74-4-3-3.25c-3.8,1.28-3-2-4.31-3.1-.44-.4-.34-1.19-1.12-1.35a2.5,2.5,0,0,1,1,1.18c.4.88,1,2-.32,2.28s-3.39-.22-1.52,2.15a1.64,1.64,0,0,1-.66,2.76,2.57,2.57,0,0,1-2.71-.7c-1.68-1.42-3.06-3.22-5.55-3.74,1.95,3.11,7.31,5.25,3.18,9.75-2.87,0-3.27-2.77-5-4-1-1.15-2.16-2.25-3.08-3.48-2.92-3.9-1.67-6.12,2.58-8.5,3-1.7,6.36-2.72,9.39-4.35,1.45-.77,2.9-2.07,4.91-1a35.51,35.51,0,0,0,3.22,2.5c2.5,1.47,3.38,4.67,6.6,5.37a9.9,9.9,0,0,1,3.37,4,9.22,9.22,0,0,0,1.75,3.92c1.92,2.41.54,3.83-1.79,4.85l.12-.06c-2.17.19-2.48,2-3.34,3.32l-3,.88C302.37,321.92,300.43,323,298.1,323Z" transform="translate(-156.94 -71.94)" style="fill:#27286d"/><path d="M221.36,305.05l4.18-3c1.77-1.93,3.46-4.06,7-1.84.29.28.16-1.29-.06-.59-.09.29-.22.18-.58-.07-2.05-1.44-3-3.49-1.67-5.31,1.7-2.34,3.88-4.7,7.61-4.13.93.14,1.79.8,2.82.43a3.26,3.26,0,0,1,1.54.32c3.48,4.08,8.33,2.54,12.68,3a7.36,7.36,0,0,1,3,1.22c1.63,1.15.79,3.45,2.59,4.53,1,1.21,2.71,2.39.38,3.78l-4.92-.92c-3.56-2-7.63-1.17-11.41-2.09-2.09-.52-.25,2.32-1.87,2.6-1.38,1.43-3.59-.11-5,1.08-1.91.18-4.16-.76-5.52,1.25l.11,0c-1.25-.11-2.06,1.19-3.31.89-5.08-1.19-6.09,1.84-6.67,5.38a4.55,4.55,0,0,1-3.61,2.33l-.69-.41c-.82-1.33-1.78-2.66-.22-4h0C219.88,308.67,218.73,305.53,221.36,305.05Z" transform="translate(-156.94 -71.94)" style="fill:#2a2c78"/><path d="M268.54,275.14c-24.37-5.23-46.1-.49-65.5,13a11,11,0,0,0-4.14,3.45c0,.33-.16.49-.52.5-2.44-1.11-2.48-2.45-.61-4,12.52-11.17,27.87-16.69,45.17-18.12,10.27-.85,20.46,0,30.28,3.74C272.42,276.14,270.1,274.65,268.54,275.14Z" transform="translate(-156.94 -71.94)" style="fill:#2f358e"/><path d="M268.54,275.14l4.68-1.43c16.23,4.08,29,13.1,39.81,24.85a52.65,52.65,0,0,1,8.39,11.57c.61,1.2,2.4,2.57.15,3.59s-2.51-1.23-3.2-2.34A78.9,78.9,0,0,0,296,287.52C287.56,281.76,278.24,278.13,268.54,275.14Z" transform="translate(-156.94 -71.94)" style="fill:#303a94"/><path d="M257.94,296.14l-3.25-1.45c-1.64,0-3.4-.34-4-1.79-.71-1.69,1.84-1.36,2.44-2.65-4-1.07-6.87,7.39-11.39.94l-1.08-.52-.33-.64c-.19-1.17-.13-2.35-.29-3.52-.58-1.57,3.24-3.63-.83-4.8-.64-1.42-.59-2.66.91-3.54a31.21,31.21,0,0,1,9.7-.58c1.84,2.18,4.49,4.32.6,6.74-.13.09-.36.05-.54.06l.15.11a4.77,4.77,0,0,0,2.63-1.09,2.67,2.67,0,0,1,2.37,0,15.6,15.6,0,0,0,6.19,3.23c2.93.89,3,2.51,2.45,4.67C262,293.17,261,295.7,257.94,296.14Z" transform="translate(-156.94 -71.94)" style="fill:#2c3187"/><path d="M297.32,297.25c-4-.12-6,4.12-10.67,3.37-2.07-.34,1.54,2.23-.82,4-1,.05-3.11-3.47-4.88-.67-1.45,2.28-.84,4.46,1.46,6.34a11.91,11.91,0,0,1,1.88,2.78l-.83.23a5,5,0,0,1-3-1.65c-1.93-2.7-7.44-3.39-5.55-8.24a20,20,0,0,0,2.12-3.08c2.16-3.82,0-3.86-3.1-3.3-1.14,0-2.35.12-2.88-1.21,2.77-5.71,9-6.82,14.38-9l2.1,1.06a9,9,0,0,0,.27,4c.43,3.25,3,1.82,4.81,2a8.49,8.49,0,0,1,5.58,2.18A1.06,1.06,0,0,1,297.32,297.25Z" transform="translate(-156.94 -71.94)" style="fill:#1c1b54"/><path d="M240.11,278.17l-.3,3.57c1.77,2.51-.4,4.2-1.25,6.18a59.81,59.81,0,0,0-9.53,6.9,8.36,8.36,0,0,1-6.35,2.32c-2.57-.2-6.49,2.24-6.51-3-.1-1.66-3.83-2.66-1.47-4.6,1.8-1.48,4-1.59,5.08,1.26.17.45.28.7.5.7-.19-3.6,3.22-3.79,5.52-4.4,4.34-1.14.58-4.53,2.26-6.27A30.42,30.42,0,0,1,240.11,278.17Z" transform="translate(-156.94 -71.94)" style="fill:#2b2c7a"/><path d="M199.74,297.09c1.16,1.73,2.52,3.29,3.57,5.17,3.76,6.74,4,6.63-3.48,10.18-1.06-1.18.72-3.38-2.14-4.14a7.8,7.8,0,0,0-.8,6c.49,1.9-2,2.53-2.18,2-1.56-3.87-5.25-.55-7.25-2.33a1.08,1.08,0,0,1,0-.93c.15-.28.26-.41.32-.38,1.36-1.05,1.3-2.54,1.28-4C192.07,304.33,195.3,300.23,199.74,297.09Z" transform="translate(-156.94 -71.94)" style="fill:#2c348f"/><path d="M254.24,309.18c-13.87,1.18-26.09,5.36-35,15.68-1.24.37-2.22,1.45-3.73,1.11-.95-.42-.8-1.22-.84-2,9.62-11.42,21.55-18.77,38.21-17.79C253.29,307.24,254.35,308,254.24,309.18Z" transform="translate(-156.94 -71.94)" style="fill:#2f3489"/><path d="M228.06,280.82c3.71,5.25,3.6,5.19-2.89,7.91-1,.44-5.4-.37-3.06,3.44.45.72-1.25,1.31-2.24.45-1.19-1-.94-4.2-4-2.45-2.19,1.27,2.25,2.58.26,4-3.71-.34-7.78-2.84-10.4,2.06-.86,1.61-3.39,1.37-4.94-.47,3.17-3.76,7.58-6,11.88-8.45,1.9.35,2.61-1.15,3.74-2A29.82,29.82,0,0,1,228.06,280.82Z" transform="translate(-156.94 -71.94)" style="fill:#2c2f82"/><path d="M263.17,338.76c-2.39,1.06-4.87,2-7.14,3.22-2.8,1.51-4.43,3.52-1.53,6.47.39.63,1.09,1.18.72,2a2,2,0,0,1-1.29.72c-2.05-.17-4.09-.87-6.16-.29-1.39,0-2.79,0-3.7-1.26.85-4.67.85-4.67,5-6.06.79.05-.44-1.15-.11-.46-2.56.86-4.49-.28-6.3-1.86a1.69,1.69,0,0,1-.31-1.46c5,.56,6.16-4.78,10.25-5.62a18,18,0,0,1,6.88-.9C264.59,333.26,265,333.92,263.17,338.76Z" transform="translate(-156.94 -71.94)" style="fill:#28286f"/><path d="M173.8,309.43c-.72,2.25-.51,6-4.58,4.33-2.88-1.16-6.52-3.13-3.17-7.32,2.38-3,3.71-6.67,6.87-9.15,2.09-.75,4.08-4.22,6.35,0C177.59,301.41,176.59,305.79,173.8,309.43Z" transform="translate(-156.94 -71.94)" style="fill:#30327e"/><path d="M188,313c-.18.32-.35.65-.51,1-3.59,6.67,3.51,6.13,6.59,7.53,2.84,1.3,6.72.52,8.1,4.75.48-3.45,1.26-5.95,4.21-7.3,1.66,0,4,.8,4.26-1.48s2.67-3,3-5h0c2.08-2.33,3.41-.57,4.8.89.1.18.18.37.26.55a63.35,63.35,0,0,1-9.93,11.11,6.16,6.16,0,0,0-.79-1.32c.26.45.61.85.84,1.31-1.39,4.62-5.14,3.45-7.91,1.85-5.54-3.19-11.81-4.72-17.42-7.67.11-2.53,1.51-4.48,3.11-6.34l1.39-2.33C189.86,311.43,189.19,312.22,188,313Z" transform="translate(-156.94 -71.94)" style="fill:#2d2f7b"/><path d="M212.64,272.16c.05.28-.08.45-.38.5-7,1.34-11.76,5.93-17,9.76-1.86,1.36-3.3,3-6,2.7-1.34-.61-3.07-1-1.88-3,6.61-7.58,15.73-11.83,25.07-15.8C214.06,268.31,215.05,270.25,212.64,272.16Z" transform="translate(-156.94 -71.94)" style="fill:#262360"/><path d="M267.46,279.92c5.88.58,10.87,3.46,16.05,5.85-.25,1-.29,2.8-1.33,2.76-5.91-.26-9.38,4.85-14.93,5.21a4.09,4.09,0,0,1-3-1.41c-1-4.17,2.73-7.27,2.53-11.25A1,1,0,0,1,267.46,279.92Z" transform="translate(-156.94 -71.94)" style="fill:#2c3187"/><path d="M312.51,291.15c-10.39-10.19-23.09-16.93-36.89-22-.89-.68-1.9-1.28-1.85-2.53,9.39,1.78,17.29,6.9,25.83,10.59a4.94,4.94,0,0,1,3.57.87c4,3.65,9.2,6.13,11.79,11.05C314.93,290.56,313.91,291,312.51,291.15Z" transform="translate(-156.94 -71.94)" style="fill:#343c93"/><path d="M197.77,288.09a3.33,3.33,0,0,0,.61,4C192,298,187,304.91,182,311.85c-.68-1.26,1-3.59-2.07-3.75C184.67,300.48,190.31,293.57,197.77,288.09Z" transform="translate(-156.94 -71.94)" style="fill:#313a94"/><path d="M259,316.44c-17.51-2.08-30.1,4.72-39.3,19,1.22-13.37,21.75-23.9,38.39-20.8C258.46,315.2,259.18,315.63,259,316.44Z" transform="translate(-156.94 -71.94)" style="fill:#3a4197"/><path d="M190.14,284.65c4.25-3.12,8.44-6.31,12.77-9.33,2.69-1.88,5.38-4.13,9.35-2.66-8.89,5.82-17.83,11.6-25.15,19.17a1.52,1.52,0,0,1-1.8-.63C184.77,287.61,186.75,285.67,190.14,284.65Z" transform="translate(-156.94 -71.94)" style="fill:#2d2d74"/><path d="M264.21,291.7l3.25,1.49c2.8,3.14.92,7.36,3.22,10.62a6.9,6.9,0,0,1,.28,1.48,1.34,1.34,0,0,1-.75,1.2L263.89,304c-2-1-1.7-4.74-5.27-3.82-1.89-1.14-.08-2.71-.68-4,1.61-1.74,2.34-4.29,5.19-4.9A.79.79,0,0,1,264.21,291.7Z" transform="translate(-156.94 -71.94)" style="fill:#2a2d7c"/><path d="M269.6,305.11a19.69,19.69,0,0,1-2.14-11.92c1.11-2.76,7.22-.22,6.44-5.27-.14-.87,1.55.24,2.36.3,2.78.19,5.58.12,7.25-2.45l1.95,1.09c-2.93,4-9,3.77-12.12,7.47a20.85,20.85,0,0,1-2,1.82C272.79,299.54,273.39,302.75,269.6,305.11Z" transform="translate(-156.94 -71.94)" style="fill:#26266b"/><path d="M190.14,284.65c-1.7,2-3.69,3.87-4.56,6.42-2,2.09-4,4.21-6.76,5.54-2.25-1.44-3.88.8-5.9.68,2.69-6.83,9.39-10.31,14.5-15.13C187.58,283.7,189,284.08,190.14,284.65Z" transform="translate(-156.94 -71.94)" style="fill:#292769"/><path d="M267.46,279.92c-.15.29-.29.58-.43.87-2.91,1.74-4,6.79-9.34,4-3.12-2.5-3.12-2.5-4.45-.58-2.52,1.38-4.87,1.87-7-1.59,9,2.33,3.06-3,3.55-5.07C255.84,277.14,261.59,279,267.46,279.92Z" transform="translate(-156.94 -71.94)" style="fill:#2d3084"/><path d="M263.17,338.76c.46-3.39-.37-5.11-4.73-4.06-1.68.4-3.72.06-5.5.69-2.47-.6-5,.87-7.47-.5a2.65,2.65,0,0,1-1-2.19,6,6,0,0,1,4.6-3.09c4.57,1.53,9.43.85,14.05,2,2.35.52,4.16,2.08,4.25,4.05S265,338.14,263.17,338.76Z" transform="translate(-156.94 -71.94)" style="fill:#18184c"/><path d="M236.6,263.8c9.32-1.85,18.7-1.2,28.1.23.51.72,1.37,1.43.21,2.24a108.6,108.6,0,0,0-28.92-.39A1.69,1.69,0,0,1,236.6,263.8Z" transform="translate(-156.94 -71.94)" style="fill:#2f2d73"/><path d="M212.64,272.16l-.15-5.8a9.76,9.76,0,0,1,10.43.2c1.49.37,1.86,1.05.76,2.14C220,269.81,216.89,272.46,212.64,272.16Z" transform="translate(-156.94 -71.94)" style="fill:#272567"/><path d="M277.83,315.15a39.18,39.18,0,0,1,10.51,10.74c1,1.46,1.08,3-.32,3.9-2.2,1.39-2.45-1-3.24-2-1.73-2.22-3.34-4.51-5-6.78C280.63,318.67,274.26,318.19,277.83,315.15Z" transform="translate(-156.94 -71.94)" style="fill:#31327e"/><path d="M178.82,296.61c1.31-2.84,3.08-5.19,6.76-5.54l1.53.77L173.8,309.43C175.59,305.2,176.12,300.51,178.82,296.61Z" transform="translate(-156.94 -71.94)" style="fill:#2d348c"/><path d="M253.93,306.47c6.46-.32,12.32,1.55,17.84,4.71.43,3.13-2.16,1.49-3.49,1.84l-13-3.62C254.65,308.48,253.63,307.71,253.93,306.47Z" transform="translate(-156.94 -71.94)" style="fill:#2f3386"/><path d="M257.2,359.47q-11.26,2.08-16.82-7.5a1.31,1.31,0,0,1,.55-1.35c3.45.37,7,.21,8.84,4.15,1.13,2.38,4.82,1.45,6.69,3.28A2.65,2.65,0,0,1,257.2,359.47Z" transform="translate(-156.94 -71.94)" style="fill:#1e1f42"/><path d="M270.21,306.49c.09-.27.17-.53.25-.79,1.74-2.34-.56-6.52,3.83-7.65,2.66,1.25,4,2.8,1.57,5.22-1.73,4.58,4,5.3,5.21,8.36a3.28,3.28,0,0,1-2.9-1.16Q274.19,308.47,270.21,306.49Z" transform="translate(-156.94 -71.94)" style="fill:#0d0d26"/><path d="M222.29,311.62c-3.29-2.79,0-4.34,1.24-6.17,1-1.44,2.38-2.54,4.25-.71,1.38,1.35,3.05-.06,4.49.61C229.78,308.56,225.54,309.43,222.29,311.62Z" transform="translate(-156.94 -71.94)" style="fill:#2b2c72"/><path d="M244.63,332.68l.81,1.76a1.49,1.49,0,0,1-.06,1.35c-.79,1.74-2.53,2.15-4.29,2.54-2.44.94-2.54,2.53-1.27,4.5.34.78,1,1.62.09,2.34-.76.58-1.35,0-1.88-.53l-3.55-2c-2.34-3.36.3-5.48,2-7.83C239.1,333.87,241.28,331.55,244.63,332.68Z" transform="translate(-156.94 -71.94)" style="fill:#0f1137"/><path d="M312.51,291.15l2.4-2h.8a4.67,4.67,0,0,1,1.35.87,51.25,51.25,0,0,1,4.82,6.2c1,1.58,2.75,2.94,2,5.07-1.22.86-2.16.39-3-.64Z" transform="translate(-156.94 -71.94)" style="fill:#2c2f7e"/><path d="M244.63,332.68c-2.5.13-4.13,2.66-6.93,2-.7.26-1.12,0-1.26-.67,3.47-3.56,8-5,13.08-5.38a1.31,1.31,0,0,1-.56,1.76C248.05,332,245.83,331.53,244.63,332.68Z" transform="translate(-156.94 -71.94)" style="fill:#3c4f9e"/><path d="M268.28,313c1.11-.69,2.92-.29,3.49-1.84,2.55.6,4.25,2.36,6.06,4-2.08,2.66,4.37,3.12,2,5.86Z" transform="translate(-156.94 -71.94)" style="fill:#2e2e73"/><path d="M249,330.38l.56-1.76c5-1.29,9.5.18,13.64,3C258.37,332,253.55,332.88,249,330.38Z" transform="translate(-156.94 -71.94)" style="fill:#344699"/><path d="M242.72,303c-.63-3.58.84-4.73,4.58-3.48,2.91,1,6.77-.69,8.7,3C251.64,303.49,247,301.49,242.72,303Z" transform="translate(-156.94 -71.94)" style="fill:#28296f"/><path d="M180,308.1c4.51-.48,3,1.78,2.07,3.75-1.21,1.92-1.15,6.19-4.48,4.73-3.61-1.59.56-4.05,1-6.19A7.68,7.68,0,0,1,180,308.1Z" transform="translate(-156.94 -71.94)" style="fill:#2f358a"/><path d="M284.29,313.07l4.38,4.49a14.09,14.09,0,0,1,6.72,5.27l-.17.32c.26,2-1.11,2.45-2.83,2.58l-9.17-10.82a1.25,1.25,0,0,1,.84-1.73Z" transform="translate(-156.94 -71.94)" style="fill:#252654"/><path d="M320.94,300.67l2.85.2c3.37.37,3.92,2.68,4.2,5.17.13,1.58,3.08,3.52.46,4.58s-2.48-2.09-3.44-3.39C323.49,305.14,322.28,302.87,320.94,300.67Z" transform="translate(-156.94 -71.94)" style="fill:#373a8c"/><path d="M314.88,289.2c1.31-1.34.21-2.21-.82-3.08.92-1.75,1.75-.56,2.6.15,4.25,1.27,4.84,5.65,7.9,7.94a1.37,1.37,0,0,1-1.07,1.82,4.11,4.11,0,0,1-1.66-.38c-1.92-1.93-3.63-4-5.74-5.8Z" transform="translate(-156.94 -71.94)" style="fill:#353786"/><path d="M223.68,268.7c-.26-.71-.51-1.43-.76-2.14a39.8,39.8,0,0,1,13.68-2.76l-.61,2.08Z" transform="translate(-156.94 -71.94)" style="fill:#34317a"/><path d="M274.32,322.09c3.69,2.59,6.6,5.66,7,10.45L271.49,322C272.43,321.34,273.38,322.24,274.32,322.09Z" transform="translate(-156.94 -71.94)" style="fill:#383d92"/><path d="M274.32,322.09a3.24,3.24,0,0,1-2.83-.08L259,316.44c-.3-.6-.6-1.2-.91-1.8,1.66.15,3.39-.09,4.84,1a12.28,12.28,0,0,0,6.46,2.95C271.55,319.11,272.92,320.62,274.32,322.09Z" transform="translate(-156.94 -71.94)" style="fill:#36398b"/><path d="M287.11,291.25c-2.48-1.5-1-2.41.45-3.33,3.27,3,8,4.1,10.87,7.53.23.32.25.53.05.64a.51.51,0,0,1-.44.08l-5.91-1.42C290,294.11,288.69,292.54,287.11,291.25Z" transform="translate(-156.94 -71.94)" style="fill:#151534"/><path d="M264.91,266.27,264.7,264c2.93,1.15,6.3.82,9.07,2.54.93.65,1.91,1.28,1.85,2.53C272,268.54,268.28,267.94,264.91,266.27Z" transform="translate(-156.94 -71.94)" style="fill:#353582"/><path d="M238,344.64l1.55-.07-1.16-1.39c-.19-2.75.08-5,4-2.85v0c.64,2.84,2.57,5.88-1.08,8.1a1.34,1.34,0,0,1-1.35-.63C240.41,346.24,238.36,345.87,238,344.64Z" transform="translate(-156.94 -71.94)" style="fill:#28286f"/><path d="M268.51,326.46c4,1.12,4.64,4.64,7,6.93l-1.21,1-7.63-7.55C267,325.82,267.59,325.5,268.51,326.46Z" transform="translate(-156.94 -71.94)" style="fill:#3c4297"/><path d="M236.44,334l1.26.67a10.2,10.2,0,0,0-3.22,8c-2.58-.67-3.76-1.77-2.07-4.24A14.21,14.21,0,0,1,236.44,334Z" transform="translate(-156.94 -71.94)" style="fill:#343f8f"/><path d="M255,349.84l-.54-1.39c3.89.31,6.57,3,9.72,4.69,1.43.78,2.12,2.19.63,3.59a4.69,4.69,0,0,1-2.87-1.44c-1.54-1.55-3.58-2.42-5.44-3.54A4.58,4.58,0,0,1,255,349.84Z" transform="translate(-156.94 -71.94)" style="fill:#121339"/><path d="M268.51,326.46l-1.83.4-8.28-3.79.69-1.44C261.64,324.63,266.24,322.81,268.51,326.46Z" transform="translate(-156.94 -71.94)" style="fill:#4459a8"/><path d="M214.72,324l.44,1.42c.77,1.33,3.22,2.49.66,4.17a2.27,2.27,0,0,1-3.58,1.45c-1.71-1-.28-2.26.23-3.29C213.11,326.47,214,325.27,214.72,324Z" transform="translate(-156.94 -71.94)" style="fill:#31368b"/><path d="M258.62,300.14c1.33-.8,2.71,0,4.06,0s3,.27,3.58,1.63c.93,2.14-3.38-.31-2.37,2.15a3,3,0,0,1-3-.51C261.8,301.39,260.07,300.85,258.62,300.14Z" transform="translate(-156.94 -71.94)" style="fill:#2e3387"/><path d="M310.66,317.07c4.51-2.76-1.71-5.91,0-8.77,1.2,1.65,2.74,3.18,3.51,5C315.49,316.27,314.91,318.31,310.66,317.07Z" transform="translate(-156.94 -71.94)" style="fill:#2c2a5b"/><path d="M284.74,267.06c-3.88-.09-6.86-2.35-10.8-3.85,2-.87,3.41-1,4.85-.09C280.25,265.12,283.51,264.74,284.74,267.06Z" transform="translate(-156.94 -71.94)" style="fill:#9792c7"/><path d="M284.74,267.06c-1.67-1.73-4.94-1.33-5.95-3.94,3.83,2.07,8.44,2.53,12,5.24-.42.55-1.08.32-1.64.4Z" transform="translate(-156.94 -71.94)" style="fill:#353b93"/><path d="M329.74,305.67l-1.35-3.14c.32-.85.71-1.44,1.56-.32,1.69,1.88,3.6,3.68,3.61,6.59C331.05,308.67,331.13,306.41,329.74,305.67Z" transform="translate(-156.94 -71.94)" style="fill:#373a89"/><path d="M263.08,354.78l1.77,2c-2.15,1.81-5,2.13-7.65,2.74l-1.43-.91c.2-1.14,1.16-1.6,2.11-2.06A26.43,26.43,0,0,1,263.08,354.78Z" transform="translate(-156.94 -71.94)" style="fill:#191a40"/><path d="M298,296.17a5,5,0,0,1,.39-.72c1.35,1.61,3.92,2.05,4.65,4.24-.82,1.91-1.86,1.05-2.9.1-1.19-.61-2.58-1-2.86-2.54Z" transform="translate(-156.94 -71.94)" style="fill:#2c2a3e"/><path d="M227.8,332.5c.7-2,2.48-2.83,4.42-3.57a12.57,12.57,0,0,1-4.37,6.28C227,334.29,228.19,333.41,227.8,332.5Z" transform="translate(-156.94 -71.94)" style="fill:#5b68b0"/><path d="M298.1,323a6.83,6.83,0,0,1,6.34-1.82C303,323.74,301.05,324.7,298.1,323Z" transform="translate(-156.94 -71.94)" style="fill:#323457"/><path d="M240.7,324.84c-1.69,1-3,2.72-6,2a8.47,8.47,0,0,1,5.47-3.56C240.83,323.67,240.63,324.29,240.7,324.84Z" transform="translate(-156.94 -71.94)" style="fill:#6a77b9"/><path d="M300.18,299.79c1,.21,2,.64,2.9-.1l4.25,4.64C303.71,304.54,302.28,301.69,300.18,299.79Z" transform="translate(-156.94 -71.94)" style="fill:#1c1b54"/><path d="M215.82,329.61c1.52-1.57-2.06-2.61-.66-4.17,1.4-.08,2.54-1.44,4.13-.58C218.64,326.78,217.81,328.57,215.82,329.61Z" transform="translate(-156.94 -71.94)" style="fill:#343b94"/><path d="M289.12,268.76l1.64-.4,8.46,4.12c-.3,1-.74,1.48-1.67.4Z" transform="translate(-156.94 -71.94)" style="fill:#2b2e7e"/><path d="M330,302.21l-1.56.32c-1.37-1.44-2.92-2.78-3.34-4.78.47-.61,1.18-.38,1.82-.39A11.56,11.56,0,0,1,330,302.21Z" transform="translate(-156.94 -71.94)" style="fill:#43438d"/><path d="M250,321.2c3.22-.55,5-.95,6.7,1.64A11.09,11.09,0,0,1,250,321.2Z" transform="translate(-156.94 -71.94)" style="fill:#6a79ba"/><path d="M232.16,305.37c.92-3.49,3.12-2.72,5.52-1.25C236.24,305.88,234,304.78,232.16,305.37Z" transform="translate(-156.94 -71.94)" style="fill:#28286d"/><path d="M316.66,286.27l-2.6-.15c-1-1.28-3.33-2.05-2-4.23A13.42,13.42,0,0,1,316.66,286.27Z" transform="translate(-156.94 -71.94)" style="fill:#494d9c"/><path d="M284.06,313.18l-.84,1.73c-2.24-.93-3.59-2.74-5.05-4.44l2.9,1.16Z" transform="translate(-156.94 -71.94)" style="fill:#1e1f40"/><path d="M240,347.84l1.27.26a1.41,1.41,0,0,1,1.08,1.62,1.55,1.55,0,0,1-1,1l-1,1.29C238.44,350.69,237.48,349.35,240,347.84Z" transform="translate(-156.94 -71.94)" style="fill:#23203d"/><path d="M243.22,322.26a7.33,7.33,0,0,1,5.22-1.06c-.16,2.49-2.33,1.67-3.69,2A1.12,1.12,0,0,1,243.22,322.26Z" transform="translate(-156.94 -71.94)" style="fill:#5f70b5"/><path d="M186.58,312.89c-1,2.11-2.07,4.23-3.11,6.34C182.67,316.3,184.66,314.61,186.58,312.89Z" transform="translate(-156.94 -71.94)" style="fill:#2c3188"/><path d="M269.36,318.63a6.08,6.08,0,0,1-6.46-2.95Z" transform="translate(-156.94 -71.94)" style="fill:#2a2c79"/><path d="M188,313a2.21,2.21,0,0,0,0-2.43l1.12-1.92C189.58,310.31,192.69,312.63,188,313Z" transform="translate(-156.94 -71.94)" style="fill:#2c3188"/><path d="M292.39,325.73l2.84-2.58a3.56,3.56,0,0,1,1.09.39C295.48,325,296.11,328.58,292.39,325.73Z" transform="translate(-156.94 -71.94)" style="fill:#13132b"/><path d="M216.45,285.27c-.81,1.34-.73,4.08-3.74,2A5.29,5.29,0,0,1,216.45,285.27Z" transform="translate(-156.94 -71.94)" style="fill:#332f78"/><path d="M306.19,277c-1.9.73-3.23-1.05-4.94-1.12a.54.54,0,0,1-.9-.22,2.28,2.28,0,0,0-.69-.88c1-2.09,2-.39,2.95.11Z" transform="translate(-156.94 -71.94)" style="fill:#2b2e7e"/><path d="M326.87,297.36l-1.82.39c-.49-.62-1-1.25-1.45-1.87l1-1.68Z" transform="translate(-156.94 -71.94)" style="fill:#383881"/><path d="M307.44,320.33c-.83-2.8,1.05-3.24,3.34-3.32C309.37,317.86,309.8,320.31,307.44,320.33Z" transform="translate(-156.94 -71.94)" style="fill:#151542"/><path d="M253.93,306.47c.43,1,.87,2,1.3,2.93a2.64,2.64,0,0,1-1-.22c-1.31-.67-2-1.58-1.31-2.95A1,1,0,0,1,253.93,306.47Z" transform="translate(-156.94 -71.94)" style="fill:#2a2d7a"/><path d="M227.8,332.5c0,.9,0,1.81,0,2.71-.49.71-.76,2.12-1.75,1.75-1.34-.5-.06-1.47.21-2.14A14.47,14.47,0,0,1,227.8,332.5Z" transform="translate(-156.94 -71.94)" style="fill:#3b50a3"/><path d="M302.61,274.89l-2.95-.12a2.31,2.31,0,0,1-2.11-1.89l1.67-.4C300.64,272.92,302,273.47,302.61,274.89Z" transform="translate(-156.94 -71.94)" style="fill:#444693"/><path d="M198.9,291.58c.62-1.93,1.59-3.5,4.14-3.45A9,9,0,0,1,198.9,291.58Z" transform="translate(-156.94 -71.94)" style="fill:#313a94"/><path d="M243.22,322.26l1.53.93-4.05,1.65-.53-1.57Z" transform="translate(-156.94 -71.94)" style="fill:#415ba9"/><path d="M222.68,297.14c5.91-2.41,9.31-8.15,15.7-9.93l.79.11c1.2.88.87,2.29,1.49,3.37v0c-.76.65-.8,3-1.37,2.28-4.39-5.41-6.56.69-7.82,1.79-2.28,2,1.21,4.11,3.55,6.4-3.84-.79-6.95-1.25-9.47.95C228.5,298.59,222.79,299.19,222.68,297.14Z" transform="translate(-156.94 -71.94)" style="fill:#2b2f80"/><path d="M221.36,305.05c-1.09,1.56-1,3.93-3.58,4.47-1.06-5.67-5-4.58-9.23-3.95,1-1.65-.27-5.86,5.09-2.5C215.51,304.24,218.82,304.09,221.36,305.05Z" transform="translate(-156.94 -71.94)" style="fill:#2b2f80"/><path d="M213.62,312.51c.19,4.84-2.56,7.28-7.26,6.44,1.37-.66,3.39-.52,3.21-2.88S211.68,313.13,213.62,312.51Z" transform="translate(-156.94 -71.94)" style="fill:#2b2f82"/><path d="M218.42,313.4c-1.58-.43-3-1.84-4.8-.89-1.31-1.45-1.69-3.18-.25-4.39,1.84-1.52,2.74,1.42,4.4,1.39C218,310.81,218.2,312.11,218.42,313.4Z" transform="translate(-156.94 -71.94)" style="fill:#2b2f82"/><path d="M295.39,322.83a10.22,10.22,0,0,1-6.72-5.27c.88-2.5.48-4.4-2.17-6.19-1.62-1.1-2.41-3.28-3.68-5.13a12.33,12.33,0,0,1,10.5,5.92c.66-2.65-2.6-3.47-1.71-6.57.62-1.48,4.39,4,4.63-.44h0c1.62-1.49,2,6.55,4.43.65.18-.44,2.59,1.13,2.82,2.17.44,2,4.18,3.53,2,5.65-.95.91-2.4,3.2-4.87,1.89-1-.52-1.93-1.85-3-.78-1.64,1.59,1.07,1.92,1.31,2.89C299.55,320.33,295.24,320.28,295.39,322.83Z" transform="translate(-156.94 -71.94)" style="fill:#292a73"/><path d="M296.24,305.15a10.2,10.2,0,0,1-2.32-1.62c-.56-.7-.82-2,.11-2.38,1.56-.6,1.9.71,2.07,1.83.1.72.1,1.45.14,2.17Z" transform="translate(-156.94 -71.94)" style="fill:#292b76"/><path d="M241.73,291.19c2.23.71,4.76,3.68,6-1,.93-3.47,4-.07,5.92-.91.72,1.56.93,2.34-1.28,3.46-1.5.76,1.73,1,2.31,2C249.94,295.06,244.71,297.13,241.73,291.19Z" transform="translate(-156.94 -71.94)" style="fill:#2b2e7e"/><path d="M257.5,283.75c2.27,1.05,4.9,1.85,5.58-1.11.61-2.66,2.92-.82,3.95-1.85,1.89,1.25,6.48,2.15.47,4.16-3.12,1,.53,5.67-3.29,6.75l-1.08-.46c-.24-3.44-3.33-4.06-5.92-4.85-1.63-.5-3.23-.43-2.38-2.61C255.69,283.08,256.56,282.61,257.5,283.75Z" transform="translate(-156.94 -71.94)" style="fill:#2c338d"/><path d="M238.38,287.21c-1.23-2.26,2.7-3.2,1.43-5.47.94.18,1.89.38,2.84.55s1.92.86,1.84,1.81c-.2,2.26-1.61.19-2.4.41-1.59.44-.82,1.75-1,2.7-.87.59-1.8-.32-2.68,0Z" transform="translate(-156.94 -71.94)" style="fill:#2b2f80"/><path d="M257.5,283.75l-2.67,0-1.59.47c-.63-1.13-.62-2.3.77-2.62A2.74,2.74,0,0,1,257.5,283.75Z" transform="translate(-156.94 -71.94)" style="fill:#2a2d7b"/><path d="M238.38,287.21a2.63,2.63,0,0,1,2.68,0c.9,1.29.09,2.37-.4,3.48C238.87,290.09,239.21,288.33,238.38,287.21Z" transform="translate(-156.94 -71.94)" style="fill:#2a2c78"/><path d="M275.86,303.27c.81-2,.33-3.55-1.8-4.62-.64-.84-1.21-1.67-.1-2.51,2.35-1.21,5.63-1.95,6.14.87C280.36,298.42,279.63,302.61,275.86,303.27Z" transform="translate(-156.94 -71.94)" style="fill:#0f102f"/><path d="M287.11,291.25c3-.48,4.47.91,5,3.5C288.74,295.76,284.58,297.74,287.11,291.25Z" transform="translate(-156.94 -71.94)" style="fill:#0e113c"/><path d="M274,296.14c0,.83.07,1.67.1,2.51-2.77,1.62-1.4,5.16-3.6,7.05a8.7,8.7,0,0,1-.86-.59c2.25-2.66.63-6.07,1.7-9Z" transform="translate(-156.94 -71.94)" style="fill:#11123f"/><path d="M242.42,340.33c-2.95-1-3.17,1.31-4,2.85-2-3.27-1.79-5.52,2.84-5.84,2,.52,3.73.7,3.63-2,.17-.32.35-.63.55-.94,2.52.1,5.13-.5,7.5.95-1,.44-3,.85-3,1.31C250,342.46,245.62,340.34,242.42,340.33Z" transform="translate(-156.94 -71.94)" style="fill:#232160"/><path d="M241.91,349.8c-.22-.57-.43-1.14-.65-1.7,2.91-2.18-1.11-5.46,1.16-7.73,2.63.7,5,3.8,8,1,.58-.54,1.57,0,1.78.84s-.58,1.19-1.37,1.31c-3.85.62-5.31,3.35-6.5,6.32C243.6,351.38,242.77,351.28,241.91,349.8Z" transform="translate(-156.94 -71.94)" style="fill:#2a2b77"/><path d="M241.91,349.8a2.2,2.2,0,0,0,2.46,0l3.74.49c2.1.88,2.61,3.69,5.32,3.82a7.58,7.58,0,0,1,4.31,2.4c.1.25.18.51.27.77l-2.24,1.27c-3.08-1.39-7.62-.3-8.56-5.38-.3-1.62-4.58.07-5.83-2.5A2.56,2.56,0,0,1,241.91,349.8Z" transform="translate(-156.94 -71.94)" style="fill:#242365"/><path d="M252.58,354.79c-4.4,1-2.91-3.05-4.47-4.49,2.31-2.87,4.32.05,6.46.5,1.48.08,2.41,1.59,4,1.44,1.11,1,1.6,2.09.57,3.35C256.77,357,254.84,354.34,252.58,354.79Z" transform="translate(-156.94 -71.94)" style="fill:#2a2b78"/><path d="M257.83,352.32c-3,3.26-2.26-.85-3.26-1.52.15-.32.31-.64.47-1l2.18,1C257.37,351.34,258.08,351.68,257.83,352.32Z" transform="translate(-156.94 -71.94)" style="fill:#26266b"/><path d="M208.8,325.05c-1.59-1-3-2.17-3.09-4.45,3.75.35,2.65,2.8,3,4.46Z" transform="translate(-156.94 -71.94)" style="fill:#303485"/><path d="M244.89,335.38c.68.86,1.73,2,.3,2.64-1.16.53-2.88,1.06-3.93-.68Z" transform="translate(-156.94 -71.94)" style="fill:#18184c"/><path d="M257.83,352.32c-.2-.5-.4-1-.61-1.49,2.17,1,4.63,1.69,5.86,3.95-.93,2.11-3.07,2.18-5.07,2.51l0-.11a1.46,1.46,0,0,1,1-1.93Z" transform="translate(-156.94 -71.94)" style="fill:#242365"/><path d="M259,355.25l-1,1.93-5.39-2.39C254.77,353.8,256.82,355.85,259,355.25Z" transform="translate(-156.94 -71.94)" style="fill:#26266b"/><path d="M251.62,455.87c-.19,1-.38,2.06-.56,3.08-2.19-11-.71-21.92-1.06-32.89-.29-8.83.05-17.64.11-26.46a1.61,1.61,0,0,1,2.25.6,23.94,23.94,0,0,1,.12,3.59c0,2.93,0,5.85-.06,8.78.09,12.86-.56,25.68.49,38.59A6.4,6.4,0,0,1,251.62,455.87Z" transform="translate(-156.94 -71.94)" style="fill:#36489b"/><path d="M251.62,455.87q.09-22.22.2-44.44l1-.11c-.05,12.27,2.33,24.66.52,36.83.58,2.66,1.37,5.36-.57,7.74A3.9,3.9,0,0,0,251.62,455.87Z" transform="translate(-156.94 -71.94)" style="fill:#343681"/><path d="M251.31,493.4q-.33,4.11-.65,8.22c-2.22-2.88-.06-5.53-.59-8.33a.79.79,0,0,1,.84-.21C251.18,493.2,251.31,493.31,251.31,493.4Z" transform="translate(-156.94 -71.94)" style="fill:#3b4ca0"/><path d="M252.36,482.05c-2.17-1.63-.88-3.19-.82-4.77C251.81,478.87,252.08,480.46,252.36,482.05Z" transform="translate(-156.94 -71.94)" style="fill:#3d50a2"/><path d="M250.05,361.54c0-.56.07-1.12.1-1.68,1.09-1.27.49-2.84,1.45-4.15.36-1.09.45-2.28,4.23-2.9-.16,16-.63,31.6-.91,47.19-.37,1.14.8,2.58-2,3.68-2.7-3.64-.39-7.24-2.35-10.65a4.94,4.94,0,0,1-.35-3.3c1.33-2.06.6-4.24,0-6.42C250.05,376,251.44,368.86,250.05,361.54Z" transform="translate(-156.94 -71.94)" style="fill:#111236"/><path d="M254.35,400.31l1-47.36-3.61,4c-1.3-2.37-1.38-4.65.21-6.83,4.66-.07,4.84-.06,4.8,3.42-.13,9.88-.44,19.76-.63,29.64-.12,5.92-.16,11.86-.23,17.79C255,401.08,254.51,400.86,254.35,400.31Z" transform="translate(-156.94 -71.94)" style="fill:#28266a"/><path d="M252.63,488.72c-.21,1.77-.41,3.55-.62,5.32-2.15-7.78-.54-15.39-.56-23.07C254.31,477,251.69,482.79,252.63,488.72Z" transform="translate(-156.94 -71.94)" style="fill:#3c4388"/><path d="M253.76,402.46l-3-1.71c0-2.44,0-4.88,0-7.31.19-1.44.38-2.88.58-4.32,2.94,3.31-.21,6.69,2.12,11.07l.9-3.15,1.54.62C256.65,399.58,255.26,401,253.76,402.46Z" transform="translate(-156.94 -71.94)" style="fill:#19183d"/><path d="M254.77,479.92c.32.16.3.32-.05.47-1.8,1.89.13,3.67.33,5.49.26.22.2.41-.17.58-1.07,3.55.13,7.07,0,10.61-.06,1.21.56,2.42-.27,3.63.27.2.24.4-.1.58-1.23,3.53.1,7-.11,10.53-.08,1.2.61,2.41-.33,3.6v.08c-1.79,1.17,1.56,2.15.21,3.3l-.12.66c-1.21,2.19,0,4.37-.32,6.55-.92,1,.07,3-4.06,2.36l0-1.34c1.18-4.56-.9-9.09.28-13.66-.27-.18-.23-.35.13-.5,1.11-3.57-.12-7.1,0-10.65.06-1.22-.57-2.44.28-3.65l.13-2.55c.89-4-.21-8-.11-12.05,0-1.22-.53-2.45.26-3.67V479.2a28.05,28.05,0,0,1-.67-11.7l-.27-10.42c1-1.13-.15-2.34.67-3.48a3.15,3.15,0,0,1,3.14.55c.66.93-.16,2,1.08,2.9,2.07,5,.68,10.17.64,15.27C254.08,474.85,255.89,477.39,254.77,479.92Z" transform="translate(-156.94 -71.94)" style="fill:#2a2d7b"/><path d="M252.35,557.14c-5.68,1.22-8.71.07-6.81-3.5,2-3.75,2.21-7.53,3.55-11.27,2.36,1,1.49,2.73,2.55,4C252.31,550,253.71,553.51,252.35,557.14Z" transform="translate(-156.94 -71.94)" style="fill:#2a2d7b"/><path d="M249.74,528.36c2.68,0,2-1.53,3.29-2.13,1.78,2.24,1.12,4.6.73,6.94l-.19,1.12c-1,1.13-.15,2.29-.37,3.43,0,.37-.26.68-.81.92a5.55,5.55,0,0,1-2,0c-.6-.24-.89-.55-.88-1,.18-2.71-1-5.41.12-8.14Z" transform="translate(-156.94 -71.94)" style="fill:#2a2d7b"/><path d="M252.36,432.73c2.11-5-1-10,.36-15.07a11.15,11.15,0,0,1,.92-1.87c-.4,5.83,2,11.62-.16,17.47A1.6,1.6,0,0,1,252.36,432.73Z" transform="translate(-156.94 -71.94)" style="fill:#2a2d7b"/><path d="M252.35,557.14a30.28,30.28,0,0,0-1.76-10.62c-.22-1.47-1.69-3,1.26-4.29a2.3,2.3,0,0,1,1.52.34c.15.64.35,1.29-.24,1.91C252.6,548.7,254.62,552.92,252.35,557.14Z" transform="translate(-156.94 -71.94)" style="fill:#2a2d7b"/><path d="M254.69,457.05c-1.77-.74-1.1-1.9-1.57-2.86a8.46,8.46,0,0,1-.88-9.95,2.25,2.25,0,0,1,2.07-.13Q254.49,450.58,254.69,457.05Z" transform="translate(-156.94 -71.94)" style="fill:#2a2d7b"/><path d="M251,453.62c-.49,1.15.16,2.38-1.17,3.45-.4-5.29-1-10.59,0-15.91,2.46.91,1.67,2.31,1.69,3.58C251.16,447.7,252.9,450.67,251,453.62Z" transform="translate(-156.94 -71.94)" style="fill:#2a2d7b"/><path d="M250.73,480.29c0,5.24,2,10.45-.15,15.72C250.17,490.78,249.67,485.54,250.73,480.29Z" transform="translate(-156.94 -71.94)" style="fill:#2a2d7b"/><path d="M254.31,444.11l-1.59.05c-2.11-1.15-1.09-2.66-1.37-4,.23-1.38,1.31-2.78-.09-4.13a4.37,4.37,0,0,1-.79-.83c-.23-1-.23-1.91,1.58-2.55l.3.1,1.13.53C255.88,436.8,253.4,440.52,254.31,444.11Z" transform="translate(-156.94 -71.94)" style="fill:#2a2d7b"/><path d="M254,515.41c.27-4.71-2-9.4.44-14.13C254.86,506,255.59,510.69,254,515.41Z" transform="translate(-156.94 -71.94)" style="fill:#2a2d7b"/><path d="M254.58,500.7c.1-4.75-2-9.47.3-14.24C254.94,491.21,255.91,495.94,254.58,500.7Z" transform="translate(-156.94 -71.94)" style="fill:#2a2d7b"/><path d="M250.45,498.56c-.16,4.77,2.07,9.51-.33,14.3C250.1,508.09,249.1,503.34,250.45,498.56Z" transform="translate(-156.94 -71.94)" style="fill:#2a2d7b"/><path d="M250,513.36c0,4.55,1.82,9.09-.28,13.66C249.41,522.47,248.58,517.93,250,513.36Z" transform="translate(-156.94 -71.94)" style="fill:#2a2d7b"/><path d="M253.76,533.17c-.24-2.31-.49-4.63-.73-6.94.86-2.25-1.29-4.58,1.09-6.78C254.25,524,255.29,528.59,253.76,533.17Z" transform="translate(-156.94 -71.94)" style="fill:#2a2d7b"/><path d="M250.07,467.5q.33,5.85.67,11.7C248.48,475.37,249.11,471.44,250.07,467.5Z" transform="translate(-156.94 -71.94)" style="fill:#2a2d7b"/><path d="M250.07,421.3c.24,3.57.49,7.15.73,10.72-.24.33-.57.39-1,.11C249.72,428.52,248.1,424.93,250.07,421.3Z" transform="translate(-156.94 -71.94)" style="fill:#2a2d7b"/><path d="M249.64,529.57c.17,3,.33,5.91.49,8.87a1.09,1.09,0,0,1-1.07.11C248.94,535.56,248,532.56,249.64,529.57Z" transform="translate(-156.94 -71.94)" style="fill:#2a2d7b"/><path d="M249.79,432.13l1-.11,1.25.61c-.75,1-1.39,1.95-.89,3,2,1.33,1.1,2.81.58,4.28a1.78,1.78,0,0,1-1.73.28C249.94,437.5,249.86,434.82,249.79,432.13Z" transform="translate(-156.94 -71.94)" style="fill:#2a2d7b"/><path d="M251.7,542.43l-1.11,4.09c-2.1-1.19-.74-2.8-1.5-4.15-.21-.14-.21-.27,0-.41a2.14,2.14,0,0,1,2.14-.83C252.25,541.32,252.36,541.9,251.7,542.43Z" transform="translate(-156.94 -71.94)" style="fill:#2a2d7b"/><path d="M254.77,479.92c0-2.54-1.57-5.08.56-7.6C255.44,474.85,256.24,477.39,254.77,479.92Z" transform="translate(-156.94 -71.94)" style="fill:#2a2d7b"/><path d="M253.13,544.48l-.44-2c-.65-1.35-2.18-2.69,0-4.08a.53.53,0,0,0,0-.6c.14-.31.45-.4,1-.24C254,539.88,254.33,542.19,253.13,544.48Z" transform="translate(-156.94 -71.94)" style="fill:#2a2d7b"/><path d="M254.24,518.79c-.79-1.07-5.33-2-.21-3.3C254.9,516.56,255.77,517.64,254.24,518.79Z" transform="translate(-156.94 -71.94)" style="fill:#2a2d7b"/><path d="M255.05,485.88c-1.64-1.78-2.75-3.57-.33-5.49Z" transform="translate(-156.94 -71.94)" style="fill:#2a2d7b"/><path d="M252.71,538.41c0,1.36,0,2.72,0,4.07a8.19,8.19,0,0,0-1,0c-.19-1.15-1.24-1-2.59-.48l-.1-1.59c1.34-.45,1.16-1.48,2.53-1.92l.58,0Z" transform="translate(-156.94 -71.94)" style="fill:#2a2d7b"/><path d="M250,440.19l.57,0,.57,0c.79,1.63,2.32,3.27-.58,4.82-.24-1.26-.49-2.52-.73-3.79C249.9,440.84,250,440.51,250,440.19Z" transform="translate(-156.94 -71.94)" style="fill:#2a2d7b"/><path d="M251.54,538.45c-.21.88.19,2-2.53,1.92,0-.61,0-1.22.05-1.82.35,0,.71-.09,1.07-.11Z" transform="translate(-156.94 -71.94)" style="fill:#2a2d7b"/><path d="M253.71,537.57l-1,.24c0-1.19-1-2.42.82-3.51C253.61,535.39,253.66,536.48,253.71,537.57Z" transform="translate(-156.94 -71.94)" style="fill:#2a2d7b"/><path d="M250.57,445c1.63-1.58.68-3.21.58-4.82s0-3,0-4.5a3,3,0,0,1,1-.15c1.39,1.23,1,2.56.51,3.9,0,1.59.06,3.19.08,4.78.14,3.34.27,6.69.4,10l-2.15-.57C250.84,450.73,250.7,447.84,250.57,445Z" transform="translate(-156.94 -71.94)" style="fill:#2a2d7b"/><path d="M252.64,439.38l-.51-3.9C254.54,436.66,253.93,438,252.64,439.38Z" transform="translate(-156.94 -71.94)" style="fill:#2a2d7b"/><path d="M488.94,320.84c-3.61,1.37-4.83-1.66-6.62-2.86-11.63-7.75-24.05-14.33-36.21-21.31a2.3,2.3,0,0,1,1.81-2c2.84,1.93,6,3.42,8.57,5.73,1.48.57,2.47,1.93,4.35,1.86l9.73,5.45a4.45,4.45,0,0,0,3.71,2l.77.45c2.08,2.57,5.87,2.84,7.93,5.42,4.17,2.28,8.66,4.09,12.3,7.13-.21.8-.66,1.2-1.34,1.2C492.19,323,490.28,322.32,488.94,320.84Z" transform="translate(-156.94 -71.94)" style="fill:#364a9f"/><path d="M508.14,333.64l5.37,3.77c-2.87.36-3.81-2.2-5.95-3a.61.61,0,0,1,.2-.66C508,333.65,508.08,333.6,508.14,333.64Z" transform="translate(-156.94 -71.94)" style="fill:#3b4ca0"/><path d="M500.78,328.33c-2,.83-2.54-.68-3.59-1.37Z" transform="translate(-156.94 -71.94)" style="fill:#3d50a2"/><path d="M505.47,330.84l3.39,2.58c-6.2-1.67-10.76-5.85-16-8.95C498.09,324.94,501,329.09,505.47,330.84Z" transform="translate(-156.94 -71.94)" style="fill:#3c4388"/><path d="M500.3,325.82c.24-.16.34-.08.3.22.57,2,2.57,1.39,3.9,2,.26-.09.36,0,.33.35,2,2.16,4.9,2.76,7.25,4.31.81.53,1.9.59,2.38,1.65.26-.1.38,0,.37.3,1.91,2.28,4.85,2.77,7.17,4.34.79.53,1.9.55,2.33,1.68l0,0c.08,1.7,2.11-.2,2.35,1.19l.4.35c1,1.72,3,1.74,4.37,2.87.32,1,2.06,1.15,0,3.74l-.93-.53c-2.65-2.65-6.6-3.06-9.25-5.71-.23.11-.33,0-.29-.29-2-2.21-4.92-2.79-7.28-4.35-.81-.53-1.9-.59-2.39-1.66l-1.7-1.13c-2.4-2.24-5.59-3.1-8.3-4.79-.83-.51-1.89-.63-2.41-1.66l-.74-.45a22.55,22.55,0,0,1-8.3-4.27l-7.25-4c-.35-1.17-1.66-.84-2.11-1.85a2.51,2.51,0,0,1,1.64-1.94c.91-.08,1.34.94,2.43.44,4.29.61,7.25,3.64,10.73,5.73C496.54,324.24,499,324,500.3,325.82Z" transform="translate(-156.94 -71.94)" style="fill:#2a2d7b"/><path d="M552.26,358.7c-1.46,4.39-3.47,6-5.16,3.26s-4.26-4.56-6.29-7c1.68-1.2,2.48.08,3.8-.12C547.33,355.83,550.32,356.3,552.26,358.7Z" transform="translate(-156.94 -71.94)" style="fill:#2a2d7b"/><path d="M531.47,348.86c1.08-1.85-.25-2-.13-3.12,2.26-.31,3.61,1.09,5.06,2.3l.69.59c.37,1.13,1.5,1,2.2,1.64q.39.21.3.93a4.43,4.43,0,0,1-.78,1.37c-.41.32-.74.39-1,.22-1.8-1.22-4.11-1.53-5.53-3.38Z" transform="translate(-156.94 -71.94)" style="fill:#2a2d7b"/><path d="M467,308.39c-2.6-3.49-7.28-3.39-10.18-6.35a9.2,9.2,0,0,1-.92-1.38c3.84,2.63,8.8,3.29,11.92,7.17A1.31,1.31,0,0,1,467,308.39Z" transform="translate(-156.94 -71.94)" style="fill:#2a2d7b"/><path d="M552.26,358.7a24.12,24.12,0,0,0-8-3.08c-1.09-.45-2.76-.07-2.42-2.6a1.77,1.77,0,0,1,.84-.9c.5.15,1,.27,1.22.93C546.57,355.12,550.29,355.44,552.26,358.7Z" transform="translate(-156.94 -71.94)" style="fill:#2a2d7b"/><path d="M484.59,316.63c-1.22.91-1.75,0-2.6-.08a6.74,6.74,0,0,1-7.17-3.43,1.78,1.78,0,0,1,.74-1.47Z" transform="translate(-156.94 -71.94)" style="fill:#2a2d7b"/><path d="M480.73,317.79c.59.8,1.7.85,1.9,2.19-3.8-1.86-7.66-3.6-10.9-6.46,1.62-1.32,2.26-.21,3.14.29C476.75,315.26,479.49,315.27,480.73,317.79Z" transform="translate(-156.94 -71.94)" style="fill:#2a2d7b"/><path d="M498.92,328.74c3.57,2.15,8,2.86,10.71,6.45C505.88,333.36,502.09,331.59,498.92,328.74Z" transform="translate(-156.94 -71.94)" style="fill:#2a2d7b"/><path d="M475.56,311.65l-.6,1.11c-1.65,1-2.27-.33-3.32-.68-.85-.72-1.38-2-2.87-1.61a3.7,3.7,0,0,1-.88.2c-.76-.24-1.41-.61-1.11-2.11l.19-.17.82-.56C471.19,307.61,472.73,310.82,475.56,311.65Z" transform="translate(-156.94 -71.94)" style="fill:#2a2d7b"/><path d="M524.33,340.67c-3.12-2.09-7.27-2.41-9.5-6C518.21,336.3,521.73,337.7,524.33,340.67Z" transform="translate(-156.94 -71.94)" style="fill:#2a2d7b"/><path d="M514.46,334.35c-3.21-2-7.29-2.47-9.63-6C508.11,330.26,511.74,331.51,514.46,334.35Z" transform="translate(-156.94 -71.94)" style="fill:#2a2d7b"/><path d="M511.33,336.32c3.2,2,7.36,2.42,9.67,6C517.73,340.41,514.06,339.18,511.33,336.32Z" transform="translate(-156.94 -71.94)" style="fill:#2a2d7b"/><path d="M521.29,342.62c3.13,1.82,7,2.42,9.25,5.71C527.3,346.7,523.85,345.43,521.29,342.62Z" transform="translate(-156.94 -71.94)" style="fill:#2a2d7b"/><path d="M536.4,348l-5.06-2.3c-1.19-1.5-3.66-1-4.21-3.49C530.32,344,533.87,345.14,536.4,348Z" transform="translate(-156.94 -71.94)" style="fill:#2a2d7b"/><path d="M489.88,324l8.3,4.27C494.63,328.29,492.19,326.27,489.88,324Z" transform="translate(-156.94 -71.94)" style="fill:#2a2d7b"/><path d="M458.21,305.33l7.64,3.84c.14.3,0,.54-.33.73C463,308.49,459.9,308.15,458.21,305.33Z" transform="translate(-156.94 -71.94)" style="fill:#2a2d7b"/><path d="M532.27,349.41l6.27,3.25a.86.86,0,0,1-.36.78C536.08,352.32,533.63,351.78,532.27,349.41Z" transform="translate(-156.94 -71.94)" style="fill:#2a2d7b"/><path d="M465.52,309.9c.12-.24.23-.49.33-.73l.93-.61c.36.9.77,1.74,1.7,1.82,1.72-.84,2.37.39,3.17,1.33a1.44,1.44,0,0,1-.51,1.3Z" transform="translate(-156.94 -71.94)" style="fill:#2a2d7b"/><path d="M541.92,353.2l2.34,2.42c-1.66,1-2.21-.63-3.45-.65-.17.09-.27,0-.27-.18a1.72,1.72,0,0,1,.3-1.81C541.37,352.38,541.82,352.53,541.92,353.2Z" transform="translate(-156.94 -71.94)" style="fill:#2a2d7b"/><path d="M500.3,325.82c-1.72-1.06-4.12-1-5-3.46C497.1,323.31,499.16,323.79,500.3,325.82Z" transform="translate(-156.94 -71.94)" style="fill:#2a2d7b"/><path d="M543.9,353.05l-1.55-.5c-1.19-.11-2.72.4-2.78-1.67a.46.46,0,0,0-.4-.27c-.16-.21-.09-.47.22-.75C541.11,350.57,542.81,351.3,543.9,353.05Z" transform="translate(-156.94 -71.94)" style="fill:#2a2d7b"/><path d="M526.73,341.9c-1.05.1-3.54,2.84-2.35-1.19C525.47,340.54,526.56,340.38,526.73,341.9Z" transform="translate(-156.94 -71.94)" style="fill:#2a2d7b"/><path d="M504.5,328c-1.88.4-3.56.43-3.9-2Z" transform="translate(-156.94 -71.94)" style="fill:#2a2d7b"/><path d="M539.57,350.88l2.78,1.67a4.88,4.88,0,0,0-.43.65c-.87-.33-1.22.43-1.38,1.59l-1.13-.58c.24-1.1-.54-1.39-.29-2.51l.22-.41Z" transform="translate(-156.94 -71.94)" style="fill:#2a2d7b"/><path d="M471.14,313l.2-.4.22-.4c1.43.11,3.18-.27,3.07,2.34l-2.89-1Z" transform="translate(-156.94 -71.94)" style="fill:#2a2d7b"/><path d="M539.12,351.7c.52.5,1.44.67.29,2.51l-1.23-.77q.17-.39.36-.78C538.74,352.34,538.93,352,539.12,351.7Z" transform="translate(-156.94 -71.94)" style="fill:#2a2d7b"/><path d="M539.39,349.86c-.07.25-.14.5-.22.76-.82-.47-2.07-.29-2.08-2Z" transform="translate(-156.94 -71.94)" style="fill:#2a2d7b"/><path d="M474.63,314.55c-.43-1.75-1.92-1.76-3.07-2.34l-3.08-1.83a2.32,2.32,0,0,1,.29-.72c1.4-.46,2.16.33,2.88,1.22l3.31,1.88,7,3.79-1.26,1.24Z" transform="translate(-156.94 -71.94)" style="fill:#2a2d7b"/><path d="M471.65,310.88l-2.89-1.22C470.55,308.48,471.22,309.44,471.65,310.88Z" transform="translate(-156.94 -71.94)" style="fill:#2a2d7b"/><path d="M448.72,300.1l-.26.08,0-.22a5.74,5.74,0,0,1-4.18-2.37l-5.59-3.25a4.41,4.41,0,0,1-3.56-2.08l-8.51-5a4.2,4.2,0,0,1,1.81-2.22c1.34.59,2.87.91,3.57,2.36,3.2,3.13,7.62,4.6,11.28,7.11,1,.72,2.51.91,3,2.34,3.89-1.13,5.12,2,7.06,3.5,3.66,2.9,8.2,4.55,11.65,7.69-3.15,2.38-3.22-.79-5-.84C456.29,304.7,451.87,303.27,448.72,300.1Z" transform="translate(-156.94 -71.94)" style="fill:#244098"/><path d="M460.63,306.83c1.46.38,2,2.26,4.33,1.2l.66.38a4.1,4.1,0,0,0,3.61,2.15l6.8,3.94c-.38,1.38,2.47.21.52,2.84L460,307.69A.71.71,0,0,1,460.63,306.83Z" transform="translate(-156.94 -71.94)" style="fill:#31489d"/><path d="M496.25,328.82l-5-2.86c-1.57-2.2-4.37-2.72-6.35-4.35-.6-.5-2.44,0-.87-2.54,5.38,3.48,11.8,5.53,16.12,10.46l-.68.42C498.28,329.81,497.8,328.46,496.25,328.82Z" transform="translate(-156.94 -71.94)" style="fill:#3651a3"/><path d="M446.25,296.84c-4.8-3.1-10.82-4.55-14.3-9.45C436.81,290.41,442.41,292.43,446.25,296.84Z" transform="translate(-156.94 -71.94)" style="fill:#394595"/><path d="M484.07,319.07c.3,2.94,3.2,2.61,4.69,4.06.89.88,2.73.66,2.53,2.83l-10.4-6.09a2.09,2.09,0,0,1,1.29-1.81Z" transform="translate(-156.94 -71.94)" style="fill:#364fa1"/><path d="M460.63,306.83c-.2.29-.4.58-.61.86-3.87-2.4-8.54-3.7-11.3-7.59Z" transform="translate(-156.94 -71.94)" style="fill:#394595"/><path d="M482.18,318.06l-1.29,1.81-4.34-2.53c-.17-.94-.35-1.89-.52-2.84Z" transform="translate(-156.94 -71.94)" style="fill:#3f59a8"/><path d="M513,338.94c2.25,1.45,5.42,1.69,6.41,4.79C517.14,342.36,514.26,341.75,513,338.94Z" transform="translate(-156.94 -71.94)" style="fill:#40509f"/><path d="M508.38,334.2,503.6,332c-.61.19-.8-.07-.58-.79C505.58,331.08,507.62,331.73,508.38,334.2Z" transform="translate(-156.94 -71.94)" style="fill:#4d5ba5"/><path d="M428.38,285c-.6.74-1.2,1.49-1.81,2.23-.42-.9-2.39-.09-1.62-2.29q2.93-2.37,3.46.11Z" transform="translate(-156.94 -71.94)" style="fill:#0e113d"/><path d="M503,331.18l.58.79a8.3,8.3,0,0,0-.64.8l-3.74-2.07v-.46l.41-.46c.19-.09.37-.18.55-.25C501.42,329.67,502.66,329.8,503,331.18Z" transform="translate(-156.94 -71.94)" style="fill:#3c54a5"/><path d="M469.23,310.56c-2.16.63-3.43,0-3.61-2.15Z" transform="translate(-156.94 -71.94)" style="fill:#244098"/><path d="M444.23,297.59l4.18,2.37C446.23,300.29,444.79,299.55,444.23,297.59Z" transform="translate(-156.94 -71.94)" style="fill:#394595"/><path d="M428.41,285.08c-.92-.51-1.68-1.34-3.45-.12C428.09,281,428.17,283.19,428.41,285.08Z" transform="translate(-156.94 -71.94)" style="fill:#394595"/><path d="M435.08,292.26l3.56,2.08C436.88,294.45,435.59,293.89,435.08,292.26Z" transform="translate(-156.94 -71.94)" style="fill:#394595"/><path d="M499.64,329.78a3.14,3.14,0,0,1-.42.92l-3-1.88C498.18,327.83,498.66,329.23,499.64,329.78Z" transform="translate(-156.94 -71.94)" style="fill:#263c96"/><path d="M320.13,261.37c-1.42,15.56-3.42,31.14,1.19,46.5.37,1.26.95,3.24-1.17,3.64s-2.06-1.5-2.39-2.91c-3.57-15.37-4.24-30.76.09-46.21A1.91,1.91,0,0,1,320.13,261.37Z" transform="translate(-156.94 -71.94)" style="fill:#384ea1"/><path d="M328,281.25c.95,7.41,1.86,14.83,2.89,22.23.28,2,1,4.14-1.75,4.76-3.36.75-2.68-2.28-3-3.8-1.62-7.8-3.47-15.62-1.32-23.67C326.13,279.38,327.18,279.57,328,281.25Z" transform="translate(-156.94 -71.94)" style="fill:#3950a3"/><path d="M328,281.25l-3.18-.48c-1-8.66,1.09-16.89,4.11-25,.9-1.68,1.92-2.48,3.35-.49Q330.11,268.27,328,281.25Z" transform="translate(-156.94 -71.94)" style="fill:#3d55a6"/><path d="M343.63,277.61c.85,1,1.71,2,3.27,1.9.89,3.59-.32,7.52,1.76,10.92.45,1.76,1.86,3.43.51,5.37.06,1,.07,1.95.19,2.92.24,1.89-.38,3.91-2.2,4.18-2.32.34-2.35-2-2.65-3.63C343.13,292.11,342.23,284.91,343.63,277.61Z" transform="translate(-156.94 -71.94)" style="fill:#34469c"/><path d="M332.25,255.28l-3.35.49c2.89-10.06,6.49-19.78,14.45-27.47l1.37,1.65C340.2,238.23,335.29,246.35,332.25,255.28Z" transform="translate(-156.94 -71.94)" style="fill:#4660ac"/><path d="M351.74,286.91a4.79,4.79,0,0,1,5.32,2,51.11,51.11,0,0,0,1.14,6.33c.62,2.08.78,3.66-1.74,4.67-2.73,1.1-3.54-.77-4.59-2.38.13-2.26-2.94-4-.95-6.57C351.19,289.61,351.47,288.26,351.74,286.91Z" transform="translate(-156.94 -71.94)" style="fill:#33459c"/><path d="M338,288.16a33.34,33.34,0,0,0,1.36,10.32c.37,1.22,2.51,4.5-.92,5.33s-3-2.26-3.44-4.14a41.75,41.75,0,0,1-.88-14.05C337.59,283.5,337.52,286.22,338,288.16Z" transform="translate(-156.94 -71.94)" style="fill:#323f98"/><path d="M331.81,227.47l2.61.52-7.29,13.43c-1.13,1.3-2,1-2.65-.39C326,236.08,328.15,231.4,331.81,227.47Z" transform="translate(-156.94 -71.94)" style="fill:#4053a4"/><path d="M320.13,261.37l-2.28,1c1.12-5.28.21-11.15,5-15.37,1,0,1.48.57,1.33,1.54Q322.18,255,320.13,261.37Z" transform="translate(-156.94 -71.94)" style="fill:#4356a6"/><path d="M324.23,248.56,322.9,247c-.95-2.33.18-4.19,1.58-6l2.65.39Z" transform="translate(-156.94 -71.94)" style="fill:#4a5daa"/><path d="M350.92,291a11.43,11.43,0,0,1,.95,6.57l-2.7-1.72a7.06,7.06,0,0,1-.51-5.37Z" transform="translate(-156.94 -71.94)" style="fill:#c4c8e4"/><path d="M338,288.16c-.93-1.35-1.77-2.82-3.88-2.54l.33-2,3.67-.4C338.45,284.87,339.14,286.52,338,288.16Z" transform="translate(-156.94 -71.94)" style="fill:#344199"/><path d="M373.07,290.85c1.35,1.94,2.58,1.66,3.7-.25,1.65,2.29.43,3.88-1.87,3.95S372.5,292.65,373.07,290.85Z" transform="translate(-156.94 -71.94)" style="fill:#36459c"/><path d="M351.74,286.91a69.28,69.28,0,0,1,45.34-70.32c4.79-1.75,9.88-2,14.94-2.33.42,1.54-.57,2.77-1.08,4.11-30.72,2.44-52,33.8-53.49,58.17-.26,4.12-.27,8.24-.39,12.36A6.74,6.74,0,0,1,351.74,286.91Z" transform="translate(-156.94 -71.94)" style="fill:#34479d"/><path d="M403.88,229.71c-24.59,8.53-38.91,35.19-36.32,58.41.34,3.1,2.43,8.47-2,8.79-3.69.27-2.7-5.49-2.93-8.63-1.76-24.81,8.85-44.09,30.13-58.34a25.58,25.58,0,0,1,12.1-4.22C405.19,227.19,404.21,228.39,403.88,229.71Z" transform="translate(-156.94 -71.94)" style="fill:#2f3e98"/><path d="M383.3,216.79c-21.56,16-34.27,36.63-36.4,62.72-2.43,1.44-2.93-.11-3.27-1.9.45-22.46,12-39.86,27.8-55.63,8-8,18.37-10.82,28.66-14.11,1.14,1.23,1.09,2.12-.8,2.5-2.48,1.86-5.49,2.35-8.44,3C387.92,213.66,386.17,216.36,383.3,216.79Z" transform="translate(-156.94 -71.94)" style="fill:#35439a"/><path d="M334.47,283.62c-3.55-30.13,22.12-67.17,47.27-78.16,0,5.61-6.89,4.8-8.9,8.56-21.93,18.45-34.72,41-34.7,69.2C337.05,284.59,335.79,284.41,334.47,283.62Z" transform="translate(-156.94 -71.94)" style="fill:#323f98"/><path d="M373.07,290.85c-5.83-22.09,9.68-50.12,31-56,.34,2.24-2.22,3.21-2.56,5.15-18.74,12.32-26.66,29.32-24.73,50.6,0,1.24-.27,2.65-1.7,2.73S373.11,292.16,373.07,290.85Z" transform="translate(-156.94 -71.94)" style="fill:#2e3b95"/><path d="M331.81,227.47c11-17.66,24.44-32.82,45-41,2.3-.91,4.44-2.21,6.65-3.32,7.83-4,16.37-5.42,25-6.66,3,.09,6.19-1.38,8.75,1.19.16,1.59-.08,3-2.09,3.37-35.58,1.85-61.74,18.63-80.63,46.91C333.19,229.34,332.38,228.93,331.81,227.47Z" transform="translate(-156.94 -71.94)" style="fill:#3c4b9f"/><path d="M343.35,228.3c7.4-11.65,16-22.1,29.44-28.05a56,56,0,0,0,5.25-3c.64,0,1,.15,1.07.53s.05.62-.09.71c-14.15,7.8-24.45,19.41-34.3,31.47A1.35,1.35,0,0,1,343.35,228.3Z" transform="translate(-156.94 -71.94)" style="fill:#4d64ae"/><path d="M394,255.5c-7.52,11-10,23.15-9.45,36-3.95-13.19-2-25.34,7.11-36.28C392.4,255.23,393.25,254.84,394,255.5Z" transform="translate(-156.94 -71.94)" style="fill:#3d479d"/><path d="M408.23,225.06c5.94-2.33,11.95-1.42,18-.58,1.95.27,3.63,1,3,3.13-.42,1.54-2,2.13-3.67,1.64-6.74-1.9-13.55-.17-20.32-.09C405.21,227.13,407.08,226.33,408.23,225.06Z" transform="translate(-156.94 -71.94)" style="fill:#333688"/><path d="M405,234.47c10.68-3.44,13.31-3.19,23.24,3.24-9.63,0-17.7-1-25.32,1.7C402.64,237.4,405.15,236.42,405,234.47Z" transform="translate(-156.94 -71.94)" style="fill:#2f3389"/><path d="M415.28,213.55c4.62-1.28,9.09.53,13.65.49a2.73,2.73,0,0,1,3,3.32c-.23,2.29-2,2.77-3.91,2.17-4.43-1.45-9.08-.82-13.58-1.48C413.65,216.39,414.2,214.93,415.28,213.55Z" transform="translate(-156.94 -71.94)" style="fill:#32368a"/><path d="M415.05,181.08c.62-1,1.23-2,1.85-3.05,2.56-3,5.85-1.75,9-1.54,3.79,1.43,8.26.26,11.8,2.67l.93,1.13c.24,1.41.14,2.64-1.73,2.94Z" transform="translate(-156.94 -71.94)" style="fill:#353788"/><path d="M401.2,278.54c1.54-3.81,2.92-7.68,4.66-11.4,1.13-2.4,2.52-5,6.19-4a5.59,5.59,0,0,1-1.18,3.69c-1.51,1.56-1.4,3.14-.08,4.73.18,1.66.93,3.24.66,4.95a4.44,4.44,0,0,1-2.44,2.12C406.39,279.18,403.77,279.64,401.2,278.54Z" transform="translate(-156.94 -71.94)" style="fill:#5c73b8"/><path d="M413.14,207.38c6.59-3.31,13.09-1.56,19.57-.09a2.08,2.08,0,0,1,1.1,1.63c0,1.3-1.41,1.66-2.18,1.4C425.67,208.29,419.31,208.81,413.14,207.38Z" transform="translate(-156.94 -71.94)" style="fill:#363b92"/><path d="M394,255.5l-2.34-.25a23.72,23.72,0,0,1,18-11.88,1.34,1.34,0,0,1,1,1.83C403.9,246.93,398.61,250.75,394,255.5Z" transform="translate(-156.94 -71.94)" style="fill:#4250a2"/><path d="M401.2,278.54c2.38-1.84,5-1.39,7.66-.89,2.61,1,1.75,3,1.6,4.88a7,7,0,0,1-.54,1.78,3.16,3.16,0,0,1-1.46,1.08c-1.19-.13-2.29-.59-3.45-.83a10.3,10.3,0,0,1-3.29-.8A5.49,5.49,0,0,1,401.2,278.54Z" transform="translate(-156.94 -71.94)" style="fill:#4f68b1"/><path d="M424.34,188.91c4.12-1.45,8.11-.5,12.1.43,1.32.3,2.53.79,2.17,2.37s-1.63,1.53-3,1.18c-3.45-.9-6.91-1.74-10.36-2.61-.64,0-1-.25-1-.65S424.2,189,424.34,188.91Z" transform="translate(-156.94 -71.94)" style="fill:#40489a"/><path d="M410,266.21l2.06-3c3.36,0,2.35,2.14,2.07,3.91q-.83,5.19-1.66,10.36a1.58,1.58,0,0,1-1.55-1.69c-.66-1.33-1.82-2.55-1-4.23C409.72,269.76,409,268,410,266.21Z" transform="translate(-156.94 -71.94)" style="fill:#354099"/><path d="M410.6,245.2c-.34-.61-.67-1.22-1-1.83a23.16,23.16,0,0,1,11.95-1c.86.16,2.17.16,2.09,1.49-.1,1.55-1.13,1.77-2.6,1.68C417.56,245.31,414.08,245.3,410.6,245.2Z" transform="translate(-156.94 -71.94)" style="fill:#3a4096"/><path d="M393.35,280.17c0,3.43,2.28,9.89-.07,9.64-4.52-.47-1.46-6.26-2.37-9.67-.05-.19.16-.45.25-.68C392.12,279.06,392.7,279.72,393.35,280.17Z" transform="translate(-156.94 -71.94)" style="fill:#4d62ad"/><path d="M379,198.48l-1-1.24,12.82-6C388.11,195.62,384,197.78,379,198.48Z" transform="translate(-156.94 -71.94)" style="fill:#6072b6"/><path d="M399.29,210.37c.27-.83.54-1.67.8-2.5,3.36-2,6.92-1,10.47-1.08C407.27,209.78,403.18,209.74,399.29,210.37Z" transform="translate(-156.94 -71.94)" style="fill:#3f4fa2"/><path d="M372.84,214c1.28-4.45,7.7-4,8.9-8.56,1.42-.74,2.95-2.91,4.39-1,1.17,1.52-1.21,2.27-2.32,3C380.21,209.7,376.51,211.83,372.84,214Z" transform="translate(-156.94 -71.94)" style="fill:#3a479d"/><path d="M393.35,280.17l-2.19-.71c-.7-3.65-.83-7.17,2.45-10a1.2,1.2,0,0,1,1.71-.89Q394.33,274.38,393.35,280.17Z" transform="translate(-156.94 -71.94)" style="fill:#435aa9"/><path d="M427.76,199.25c-4.15,1.84-8.4.37-12.6.56-.9-1-1.17-1.78.62-2,4.13-.32,8.39-1.46,11.93,1.69Z" transform="translate(-156.94 -71.94)" style="fill:#3a4097"/><path d="M407.59,199.93l-13.13,2.78c-.15-1.45,1.36-1.85,2-2.81l10.28-1.34c.58.08.89.31.95.69S407.72,199.85,407.59,199.93Z" transform="translate(-156.94 -71.94)" style="fill:#485ba9"/><path d="M396.46,199.9l-2,2.81c-1.84.77-3.33,2.95-6.12,1.48C390.22,200.85,393.27,200.25,396.46,199.9Z" transform="translate(-156.94 -71.94)" style="fill:#3e4da0"/><path d="M414.16,282.6a5.62,5.62,0,0,1-.94,4.53l0,0c-2-.11-4.11-.19-3.87-3-.16-.41-.33-.81-.52-1.21.76-1.79,2-2.89,4.15-2.43C413.39,281.19,413.78,281.89,414.16,282.6Z" transform="translate(-156.94 -71.94)" style="fill:#2a2d7a"/><path d="M427.71,199.47c3.08-1.91,5.7-1,8.78,1.43-3.86,1.82-6.47,1-8.74-1.65Z" transform="translate(-156.94 -71.94)" style="fill:#464899"/><path d="M414,174.52l-4.37,1-5.47.07C407.22,173.28,410.31,171.22,414,174.52Z" transform="translate(-156.94 -71.94)" style="fill:#6c77b9"/><path d="M408.24,254.84,401.65,259c.93-4.68,3.54-5.94,7.13-6.11C409.33,253.68,408.45,254.18,408.24,254.84Z" transform="translate(-156.94 -71.94)" style="fill:#7086c3"/><path d="M415.28,213.55a5,5,0,0,1-.81,4.5l-3.53.32c-1.2-1.72-.33-3,1.08-4.11C413,213.7,414,212.83,415.28,213.55Z" transform="translate(-156.94 -71.94)" style="fill:#2c2e7d"/><path d="M401.78,189.31c-1.57,2.3-3.84,2.67-6.73,2.6C396.42,188.14,399.58,189.91,401.78,189.31Z" transform="translate(-156.94 -71.94)" style="fill:#a0add8"/><path d="M401.72,283.76a3.35,3.35,0,0,1,3.44-.4c2.62,2-1,2.55-1,3.93-.84.34-2.23,1.17-2.44.95C400.33,286.86,401.15,285.27,401.72,283.76Z" transform="translate(-156.94 -71.94)" style="fill:#6b7bbc"/><path d="M413,280.49l-4.15,2.43v-5.27l2.06-1.89c.51.56,1,1.13,1.54,1.69C412.64,278.46,412.82,279.47,413,280.49Z" transform="translate(-156.94 -71.94)" style="fill:#31398d"/><path d="M405,234.47c1.89,2.61-.49,3.63-2.08,4.94l-1.44.59c-1.45-2.73,1-3.76,2.56-5.15A.65.65,0,0,1,405,234.47Z" transform="translate(-156.94 -71.94)" style="fill:#26276c"/><path d="M408.23,225.06c.34,2.25-1.56,3-3,4.1l-.62.42-.73.13c-1.06-1.61-.47-2.89.95-4C405.9,225.16,406.91,224.32,408.23,225.06Z" transform="translate(-156.94 -71.94)" style="fill:#2d2e7b"/><path d="M424.34,188.91l.94,1.37-8.1-.06C420,186.94,422,186.76,424.34,188.91Z" transform="translate(-156.94 -71.94)" style="fill:#7486c3"/><path d="M407.59,199.93l-.85-1.37c3-.61,5.95-1.46,9-.78l-.62,2Z" transform="translate(-156.94 -71.94)" style="fill:#4f61ac"/><path d="M395.32,268.59l-1.71.89c.09-3,2.22-4.94,3.89-7.77C399,265.05,396.77,266.7,395.32,268.59Z" transform="translate(-156.94 -71.94)" style="fill:#4963ae"/><path d="M408.24,254.84l.54-2c1.44-.44,3.69-2.74,4.19-.65C413.75,255.48,409.55,253.34,408.24,254.84Z" transform="translate(-156.94 -71.94)" style="fill:#4d59a7"/><path d="M408.4,285c-.2.68-.39,1.36-.59,2.05-1.29-1-2.49-.52-3.69.22.35-1.31.7-2.62,1-3.93A3,3,0,0,1,408.4,285Z" transform="translate(-156.94 -71.94)" style="fill:#8490c8"/><path d="M429.71,175.27l-3.29.29-1.72-2.37C427.33,171.84,429.06,172.4,429.71,175.27Z" transform="translate(-156.94 -71.94)" style="fill:#7078b9"/><path d="M383.3,216.79c2.34-1.51,4.24-3.91,7.55-3.45C388.55,214.94,386.48,217,383.3,216.79Z" transform="translate(-156.94 -71.94)" style="fill:#3f4fa2"/><path d="M410,266.21c.32,1.77,1.13,3.55-.1,5.32C403.32,269.72,408.35,268,410,266.21Z" transform="translate(-156.94 -71.94)" style="fill:#485daa"/><path d="M407.82,276.31c3-2.9,3.74-.45,5.1.41s2.64,1.86,3.95,2.79c-1.86,2.27-2.1.19-3.07.08-1.36-.55-2-2.21-3.92-1.88Z" transform="translate(-156.94 -71.94)" style="fill:#8d90c7"/><path d="M439.41,292.68l1.32,2.36c-2.76,0-4.17-2-6.13-3.16-.08-.49-.44-.83-.06-1.55C437,289.83,438,291.61,439.41,292.68Z" transform="translate(-156.94 -71.94)" style="fill:#687abb"/><path d="M434.54,290.33l.06,1.55-4.07-2.79C433,288.25,433.57,289.61,434.54,290.33Z" transform="translate(-156.94 -71.94)" style="fill:#6875b8"/><path d="M425,285.34l.58-.75c1.16.64,2.67.86,3,2.6C426.76,287.42,426,286.18,425,285.34Z" transform="translate(-156.94 -71.94)" style="fill:#465aa8"/><path d="M440.13,292.88l2.53,1.59c1.38.46,2.81.84,3.23,2.53-6.41-1-10.34-5.84-15.68-8.52-4.81-2.41-9-5.71-13.54-8.62,7.81,1.55,12.56,7.75,19.56,10.54A7.1,7.1,0,0,1,440.13,292.88Z" transform="translate(-156.94 -71.94)" style="fill:#322f7a"/><path d="M408.22,273.78l5.51,3.57c.91.56,1.81,1.12,1.74,2.61C412.87,278.13,409.06,277.79,408.22,273.78Z" transform="translate(-156.94 -71.94)" style="fill:#2e2e7b"/><path d="M439.55,293.69l15.09,9.77c.89.17,2.18,0,.71,2l-14.48-9.41C440,295.62,438.12,296.15,439.55,293.69Z" transform="translate(-156.94 -71.94)" style="fill:#364a9f"/><path d="M476,316.73l-5-3.6c2.6-.18,4,1.47,5.6,2.74C476.45,316.16,476.24,316.44,476,316.73Z" transform="translate(-156.94 -71.94)" style="fill:#4356a6"/><path d="M493.18,325.6c-2.87.57-3.85-1.68-5.63-2.74A9.91,9.91,0,0,1,493.18,325.6Z" transform="translate(-156.94 -71.94)" style="fill:#3d50a2"/><path d="M507.66,334c-2.28.73-3-1-4.27-1.81Z" transform="translate(-156.94 -71.94)" style="fill:#3d50a2"/><path d="M466.49,306.25l45.79,28.57c1,0,1.72.34,1.85,1.46a1.89,1.89,0,0,1-1.67,1.26c-4.93-2.59-9.08-6.3-14.28-8.49-8.6-5.18-17.36-10.13-25.67-15.7-1.69-1.13-5.11,0-5.15-3.33-4.39-1.45-7.67-4.41-10.94-7.46C461,301.62,462.69,305.84,466.49,306.25Z" transform="translate(-156.94 -71.94)" style="fill:#2c3181"/><path d="M416.67,279.86l-1.34-.91c-.58-1.41-2.12-1.77-2.78-3.11-.74-.8-1.68-1.46-.55-4.47,13.06,8.13,25.65,16.26,38.33,24.28.78.83,2.46.71,2.17,3.24-4.15.1-6.11-3.35-9.75-3.66a5.42,5.42,0,0,1-2.86-1.41c-1.12-2-3.23-2.55-5.26-3.23C428.56,287.12,423.27,282.54,416.67,279.86Z" transform="translate(-156.94 -71.94)" style="fill:#111236"/><path d="M450.34,296.21l-38.43-24.42c.91,2.45,1.29,3.5,1.68,4.55a6.4,6.4,0,0,1-5.51-3.57c2-3.36,2-3.48,4.88-1.71,8.06,5,16,10.2,24.05,15.29,4.81,3,9.66,6,14.5,9.06C451.25,296.12,450.86,296.36,450.34,296.21Z" transform="translate(-156.94 -71.94)" style="fill:#28266a"/><path d="M466.49,306.25c-4,.56-5.4-3.46-9.56-2.85L467.36,310c-5.95-1.61-10.09-5.95-15.47-8.41a2.44,2.44,0,0,1,2.67-1.3C460,299.94,462.59,304.14,466.49,306.25Z" transform="translate(-156.94 -71.94)" style="fill:#2c3894"/><path d="M513.25,337.09l4.1,3.11c-7.32-2.36-12.86-7.32-19.17-11.15C504.33,330,508,334.79,513.25,337.09Z" transform="translate(-156.94 -71.94)" style="fill:#3c4388"/><path d="M454.56,300.31l-2.66,1.3L446,298l-3.23-2.53c3.94-.48,5.29,3.42,9.82,3.91-1.15-1.16-1.64-1.67-2.14-2.18l1.16-.79C453.5,296.85,454.06,298.55,454.56,300.31Z" transform="translate(-156.94 -71.94)" style="fill:#19183d"/><path d="M440.13,292.88l-3.9-2.48C438.45,289.93,439.74,290.78,440.13,292.88Z" transform="translate(-156.94 -71.94)" style="fill:#19183d"/></svg>